<?xml version="1.0" standalone="no"?>
<!DOCTYPE svg PUBLIC "-//W3C//DTD SVG 1.1//EN" "http://www.w3.org/Graphics/SVG/1.1/DTD/svg11.dtd" >
<svg xmlns="http://www.w3.org/2000/svg" xmlns:xlink="http://www.w3.org/1999/xlink" version="1.1">
<metadata>
Created by FontForge 20190801 at Thu Sep  3 11:16:05 2020
 By Jimmy Wärting
 
</metadata>
<defs>
<font id="Gill-Sans-MTRegular" horiz-adv-x="1024" >
  <font-face 
    font-family="Gill-Sans-MT"
    font-weight="500"
    font-stretch="normal"
    units-per-em="2048"
    panose-1="0 0 0 0 0 0 0 0 0 0"
    ascent="1638"
    descent="-410"
    x-height="920"
    cap-height="1397"
    bbox="-332 -578 2132 1880"
    underline-thickness="0"
    underline-position="0"
    unicode-range="U+0020-FB02"
  />
<missing-glyph horiz-adv-x="457" 
d="M20 675h417v-675h-417v675zM68 48h320v579h-320v-579z" />
    <glyph glyph-name=".notdef" horiz-adv-x="457" 
d="M20 675h417v-675h-417v675zM68 48h320v579h-320v-579z" />
    <glyph glyph-name=".notdef" horiz-adv-x="457" 
d="M20 675h417v-675h-417v675zM68 48h320v579h-320v-579z" />
    <glyph glyph-name="space" unicode=" " horiz-adv-x="569" 
 />
    <glyph glyph-name="exclam" unicode="!" horiz-adv-x="555" 
d="M401 104v0c0 -33 -12 -62 -35 -85c-24 -23 -53 -35 -87 -35v0c-36 0 -66 12 -90 35c-25 23 -37 51 -37 85v0c0 36 12 66 36 91c24 24 53 36 88 36v0c36 0 66 -12 90 -36c23 -25 35 -55 35 -91zM256 436v0l-16 51c-14 40 -30 131 -48 273c-19 142 -28 263 -28 362v0
c0 195 38 293 115 293v0c75 0 112 -95 112 -285v0c0 -158 -15 -320 -45 -485v0l-27 -153l-16 -58c-6 -21 -15 -31 -27 -31v0c-7 0 -14 11 -20 33z" />
    <glyph glyph-name="quotedbl" unicode="&#x22;" horiz-adv-x="725" 
d="M299 1227l-45 -281h-111l-49 281v239h205v-239zM631 1227l-47 -281h-109l-49 281v239h205v-239z" />
    <glyph glyph-name="numbersign" unicode="#" horiz-adv-x="1196" 
d="M305 871h-301v123h326l86 403h121l-86 -403h421l84 403h123l-86 -403h199v-123h-223l-76 -371h299v-123h-324l-84 -399h-122l86 399h-424l-84 -399h-123l84 399h-197v123h223zM772 500l76 371h-422l-78 -371h424z" />
    <glyph glyph-name="dollar" unicode="$" horiz-adv-x="1110" 
d="M489 1415h168v-74c133 -20 235 -60 306 -120v0v-230c-83 85 -185 142 -306 170v0v-405c121 -36 214 -88 277 -157s94 -149 94 -239v0c0 -90 -31 -170 -93 -241v0c-31 -35 -66 -64 -107 -86s-98 -39 -171 -51v0v-222h-168v222c-113 11 -242 58 -385 143v0v252
c64 -58 126 -104 186 -138c59 -34 126 -58 199 -73v0v440c-112 39 -191 75 -236 108c-46 33 -82 74 -108 121s-39 94 -39 142v0c0 94 35 174 105 241c70 66 163 107 278 123v0v74zM489 809v0v352c-54 -7 -98 -27 -132 -58c-35 -32 -52 -69 -52 -112v0c0 -39 12 -71 35 -96
s65 -50 124 -75v0c10 -4 18 -8 25 -11zM688 522v0l-31 17v-371c115 27 172 85 172 176v0c0 39 -10 72 -30 98c-21 25 -58 52 -111 80z" />
    <glyph glyph-name="percent" unicode="%" horiz-adv-x="1384" 
d="M151 -16l920 1433h153l-919 -1433h-154zM1021 608v0c85 0 159 -30 220 -91s92 -135 92 -220v0c0 -85 -30 -158 -91 -217c-61 -60 -135 -90 -221 -90v0c-87 0 -160 30 -221 90c-61 59 -92 132 -92 217v0c0 86 31 159 92 220s135 91 221 91zM1019 457v0
c-44 0 -81 -16 -112 -47s-47 -69 -47 -113v0c0 -45 16 -83 47 -114c31 -32 68 -48 112 -48v0c45 0 84 16 115 47s47 70 47 115v0c0 45 -16 83 -47 114s-70 46 -115 46zM362 1413v0c86 0 159 -31 220 -92s91 -135 91 -221v0c0 -85 -30 -159 -91 -220s-135 -92 -220 -92v0
c-85 0 -158 31 -219 92s-92 135 -92 220v0c0 86 30 160 91 221s134 92 220 92zM360 1262v0c-45 0 -83 -16 -114 -47c-32 -32 -48 -70 -48 -115v0c0 -44 16 -82 48 -113s70 -47 114 -47v0c45 0 83 16 115 47c31 31 47 69 47 113v0c0 45 -16 84 -47 115s-70 47 -115 47z" />
    <glyph glyph-name="ampersand" unicode="&#x26;" horiz-adv-x="1280" 
d="M1270 0h-256l-162 190c-14 -14 -38 -34 -72 -61v0l-2 -2c-47 -39 -106 -73 -175 -101c-70 -28 -136 -42 -197 -42v0c-97 0 -179 32 -246 95s-101 139 -101 230v0c0 65 17 124 50 177s86 106 161 161v0l3 3c44 33 82 58 114 75v0c-105 113 -158 221 -158 324v0
c0 95 32 173 97 232s149 89 252 89v0c101 0 185 -29 250 -87s98 -132 98 -222v0c0 -122 -81 -241 -244 -356v0l-14 -11l196 -225c57 63 107 138 150 225v0h200c-48 -124 -124 -246 -227 -366v0zM684 289v0l45 41l-227 262l-88 -62c-104 -70 -156 -141 -156 -213v0
c0 -39 17 -73 51 -101s75 -42 123 -42v0c37 0 80 11 127 32s88 49 125 83zM555 829v0l76 54c71 50 106 108 106 174v0c0 41 -15 75 -44 102c-30 27 -68 41 -113 41v0c-44 0 -80 -13 -109 -38s-43 -57 -43 -95v0c0 -37 11 -76 34 -119s54 -83 93 -119z" />
    <glyph glyph-name="quotesingle" unicode="'" horiz-adv-x="385" 
d="M295 1221l-47 -275h-113l-45 275v245h205v-245z" />
    <glyph glyph-name="parenleft" unicode="(" horiz-adv-x="662" 
d="M524 1415v0h113c-83 -124 -144 -230 -181 -318c-38 -88 -66 -189 -85 -302c-19 -114 -29 -224 -29 -330v0c0 -364 98 -675 295 -934v0h-113l-30 37c-75 91 -131 165 -167 223c-37 58 -73 133 -109 226v0c-58 148 -87 299 -87 454v0c0 157 29 309 87 456
c58 146 160 309 306 488z" />
    <glyph glyph-name="parenright" unicode=")" horiz-adv-x="662" 
d="M137 -469v0h-112c87 131 148 242 185 333s64 191 82 300s27 213 27 313v0c0 116 -10 228 -31 337s-53 212 -94 310c-42 97 -98 194 -169 291v0h112l31 -37c75 -89 130 -162 167 -220c36 -58 72 -134 108 -227v0c58 -148 87 -301 87 -458v0c0 -151 -26 -296 -79 -435v0
c-26 -69 -59 -138 -98 -207c-40 -69 -112 -169 -216 -300z" />
    <glyph glyph-name="asterisk" unicode="*" horiz-adv-x="854" 
d="M485 1311l-41 -209h5c14 0 26 -7 36 -21v0l172 164c36 34 68 51 95 51v0c18 0 33 -7 46 -20c13 -14 19 -31 19 -51v0c0 -45 -26 -75 -78 -88v0l-22 -7l-219 -79c3 -9 4 -17 4 -25v0c0 -8 -1 -15 -4 -22v0l231 -87l45 -22c11 -7 21 -17 30 -30c9 -14 13 -27 13 -38v0
c0 -15 -6 -31 -19 -46s-29 -23 -46 -23v0c-33 0 -72 22 -117 67v0l-150 150c-14 -14 -28 -21 -41 -21v0l41 -211c6 -26 9 -57 9 -92v0c0 -59 -23 -88 -68 -88v0c-47 0 -70 32 -70 96v0c0 18 2 35 6 52v0l52 243c-13 1 -26 8 -39 21v0l-160 -148c-50 -45 -88 -67 -113 -67v0
c-18 0 -34 7 -47 20s-20 29 -20 47v0c0 44 41 80 123 107v0l202 70c-3 11 -4 19 -4 24v0l4 23l-231 86c-60 21 -90 50 -90 86v0c0 19 7 37 21 52s30 23 49 23v0c15 0 37 -11 65 -32v0l27 -21l174 -164c11 13 24 20 39 21v0l-39 205l-10 43c-3 15 -5 30 -5 45v0
c0 61 23 92 70 92v0c45 0 68 -27 68 -82v0c0 -19 -4 -51 -13 -94v0z" />
    <glyph glyph-name="plus" unicode="+" horiz-adv-x="1196" 
d="M683 237h-170v402h-399v168h399v399h170v-399h399v-168h-399v-402z" />
    <glyph glyph-name="comma" unicode="," horiz-adv-x="449" 
d="M100 -242v0v37c30 29 51 58 63 87s19 68 21 118v0c-71 21 -106 64 -106 131v0c0 36 12 67 37 94c24 26 53 39 86 39v0c41 0 74 -18 100 -54s39 -82 39 -138v0c0 -74 -21 -139 -64 -195s-101 -96 -176 -119z" />
    <glyph glyph-name="hyphen" unicode="-" horiz-adv-x="662" 
d="M82 356v195h498v-195h-498z" />
    <glyph glyph-name="period" unicode="." horiz-adv-x="449" 
d="M223 223v0c34 0 63 -12 87 -35s36 -52 36 -86v0c0 -33 -12 -61 -35 -84c-24 -23 -53 -34 -88 -34v0c-34 0 -63 11 -86 34s-35 51 -35 84v0c0 34 12 63 35 86s52 35 86 35z" />
    <glyph glyph-name="slash" unicode="/" horiz-adv-x="575" 
d="M150 -18h-145l402 1434h144z" />
    <glyph glyph-name="zero" unicode="0" 
d="M520 1415v0c128 0 234 -67 318 -201c83 -135 125 -305 125 -512v0c0 -212 -42 -384 -125 -517c-84 -133 -193 -199 -326 -199v0c-135 0 -244 65 -326 195s-123 302 -123 517v0c0 212 42 385 127 518s195 199 330 199zM522 1225v0h-10c-77 0 -137 -47 -182 -141
c-45 -95 -68 -223 -68 -384v0c0 -165 22 -295 66 -389s105 -141 182 -141v0c77 0 138 47 183 141s67 222 67 383v0c0 162 -21 291 -64 387s-101 144 -174 144z" />
    <glyph glyph-name="one" unicode="1" 
d="M414 0v1397h200v-1397h-200z" />
    <glyph glyph-name="two" unicode="2" 
d="M465 244l-43 -51h532v-193h-884v14l84 99c131 163 236 301 314 414c77 113 128 199 152 257c23 58 35 115 35 172v0c0 79 -22 142 -67 190c-45 47 -104 71 -178 71v0c-56 0 -111 -16 -165 -49c-55 -33 -104 -80 -147 -140v0v254c109 89 221 133 336 133v0
c122 0 223 -41 302 -122s118 -185 118 -310v0c0 -56 -10 -116 -29 -179c-20 -64 -55 -137 -105 -220s-135 -197 -255 -340v0z" />
    <glyph glyph-name="three" unicode="3" 
d="M369 629v184h12c87 0 154 18 200 54c45 36 68 88 68 157v0c0 62 -22 112 -66 151c-45 39 -103 58 -175 58v0c-73 0 -153 -23 -242 -68v0v191c81 41 170 61 266 61v0c129 0 230 -34 305 -101c74 -67 111 -159 111 -276v0c0 -71 -14 -130 -43 -178
c-29 -49 -74 -90 -137 -125v0c55 -21 95 -47 120 -78s45 -69 59 -113s21 -91 21 -140v0c0 -122 -41 -223 -122 -302c-81 -80 -184 -120 -308 -120v0c-106 0 -208 26 -307 77v0v218c105 -66 208 -99 307 -99v0c67 0 122 20 163 60s61 93 61 159v0c0 55 -17 104 -51 145v0
c-20 23 -42 41 -66 52c-25 11 -77 21 -158 31v0z" />
    <glyph glyph-name="four" unicode="4" 
d="M23 547l704 868h82v-784h156v-170h-156v-461h-195v461h-591v86zM291 631h323v405z" />
    <glyph glyph-name="five" unicode="5" 
d="M207 670v727h620v-178h-438v-353c14 1 28 2 43 2v0c135 0 247 -41 334 -123c87 -83 131 -188 131 -315v0c0 -131 -43 -238 -129 -320c-87 -83 -199 -124 -336 -124v0c-113 0 -223 27 -330 82v0v206c101 -65 199 -98 295 -98v0c84 0 155 25 212 74s85 109 85 180v0
c0 74 -31 136 -93 186c-62 49 -139 74 -232 74v0c-79 0 -133 -7 -162 -20v0z" />
    <glyph glyph-name="six" unicode="6" 
d="M629 1401v0l20 14l121 -153c-107 -69 -195 -144 -265 -225c-71 -81 -125 -177 -163 -287v0c74 38 148 57 221 57v0c110 0 203 -39 278 -117s113 -174 113 -287v0c0 -117 -41 -216 -123 -297s-182 -122 -299 -122v0c-131 0 -237 46 -318 139c-81 92 -122 213 -122 362v0
c0 112 21 224 63 335c41 111 101 215 180 312c78 97 176 186 294 269zM299 543v0c-5 -31 -8 -66 -8 -105v0c0 -79 23 -143 69 -194c45 -51 104 -76 175 -76v0c64 0 117 22 159 65c41 43 62 98 62 164v0c0 67 -22 122 -66 164c-45 41 -103 62 -176 62v0
c-37 0 -71 -6 -101 -17c-31 -11 -69 -32 -114 -63z" />
    <glyph glyph-name="seven" unicode="7" 
d="M100 1206v191h904l-633 -1413l-178 75l512 1147h-605z" />
    <glyph glyph-name="eight" unicode="8" 
d="M98 1022v0c0 109 41 202 123 279c82 76 182 114 301 114v0c117 0 215 -38 296 -113c80 -76 120 -169 120 -280v0c0 -125 -58 -228 -174 -309v0c129 -75 194 -185 194 -330v0c0 -115 -42 -211 -126 -286s-190 -113 -318 -113v0c-127 0 -233 39 -319 116s-129 172 -129 285
v0c0 142 66 251 198 328v0c-59 48 -102 96 -127 144c-26 47 -39 102 -39 165zM739 1016v0c0 61 -21 111 -62 150c-42 39 -95 59 -159 59v0c-65 0 -118 -19 -159 -58s-62 -88 -62 -149v0c0 -58 22 -108 66 -149c43 -41 96 -62 157 -62v0c61 0 112 21 155 62s64 90 64 147z
M756 375v0v20c0 64 -23 116 -68 157c-46 40 -105 60 -178 60v0c-71 0 -129 -20 -174 -61s-68 -93 -68 -158v0c0 -65 23 -117 69 -158s106 -61 179 -61v0c70 0 128 19 173 56s67 86 67 145z" />
    <glyph glyph-name="nine" unicode="9" 
d="M383 -16v0l-123 145c103 65 194 145 271 238s129 188 155 286v0c-63 -39 -138 -59 -223 -59v0c-107 0 -198 40 -274 119c-77 79 -115 175 -115 286v0c0 116 41 214 122 295s181 121 298 121v0c132 0 240 -48 324 -143s126 -218 126 -367v0c0 -169 -53 -340 -158 -513
s-240 -309 -403 -408zM725 852v0c8 53 12 88 12 104v0c0 81 -22 147 -67 198s-103 77 -174 77v0c-65 0 -118 -22 -160 -65c-43 -44 -64 -99 -64 -165v0c0 -61 23 -113 69 -157s101 -66 165 -66v0c75 0 148 25 219 74z" />
    <glyph glyph-name="colon" unicode=":" horiz-adv-x="449" 
d="M215 227v0c34 0 63 -12 87 -36s36 -53 36 -87v0c0 -33 -12 -62 -36 -85s-53 -35 -87 -35v0c-33 0 -61 12 -85 35s-36 52 -36 85v0c0 34 12 63 35 87s52 36 86 36zM231 938v0c34 0 63 -12 87 -36s36 -53 36 -87v0c0 -33 -12 -62 -36 -85c-24 -24 -53 -36 -87 -36v0
c-33 0 -61 12 -84 36c-24 23 -36 52 -36 85v0c0 34 12 63 35 87s52 36 85 36z" />
    <glyph glyph-name="semicolon" unicode=";" horiz-adv-x="469" 
d="M207 -10v0l2 10c-71 21 -107 64 -107 131v0c0 36 12 67 37 94c24 26 53 39 86 39v0c40 0 73 -18 100 -55s40 -82 40 -137v0c0 -74 -21 -139 -64 -195s-101 -96 -176 -119v0v37c29 27 49 55 61 84s19 66 21 111zM244 938v0c34 0 63 -12 87 -36s36 -53 36 -87v0
c0 -33 -12 -62 -36 -85c-24 -24 -52 -36 -85 -36v0c-34 0 -63 12 -87 36c-24 23 -36 52 -36 85v0c0 34 12 63 36 87c23 24 52 36 85 36z" />
    <glyph glyph-name="less" unicode="&#x3c;" horiz-adv-x="1196" 
d="M1083 226l-971 415v168l971 410v-179l-770 -316l770 -319v-179z" />
    <glyph glyph-name="equal" unicode="=" horiz-adv-x="1196" 
d="M1082 1030v-168h-968v168h968zM1082 585v-168h-968v168h968z" />
    <glyph glyph-name="greater" unicode="&#x3e;" horiz-adv-x="1196" 
d="M1083 809v-168l-971 -415v179l769 319l-769 316v179z" />
    <glyph glyph-name="question" unicode="?" horiz-adv-x="682" 
d="M133 1198v0l131 219c108 -4 190 -34 246 -90c56 -57 84 -126 84 -209v0c0 -53 -11 -110 -32 -169c-22 -60 -71 -148 -146 -263v0c-87 -135 -131 -230 -131 -287v0c0 -9 2 -22 6 -41v0c-45 21 -78 46 -97 75c-20 29 -30 67 -30 116v0c0 47 8 88 24 125
c15 37 53 102 113 196v0c57 91 86 166 86 226v0c0 41 -13 74 -38 99c-26 24 -60 36 -103 36v0c-32 0 -70 -11 -113 -33zM438 104v0c0 -34 -12 -62 -36 -85s-54 -35 -89 -35v0c-33 0 -61 11 -84 34s-34 51 -34 84v0c0 35 12 64 35 89c23 24 52 36 85 36v0c35 0 64 -12 88 -35
c23 -24 35 -53 35 -88z" />
    <glyph glyph-name="at" unicode="@" horiz-adv-x="2068" 
d="M1012 1083v0c128 0 228 -61 301 -184v0l35 156h180l-160 -742c-9 -43 -14 -71 -14 -84v0c0 -19 7 -34 20 -47s30 -20 49 -20v0c43 0 99 28 167 84c67 55 121 125 160 209s58 171 58 262v0c0 180 -68 330 -204 451c-136 120 -306 180 -510 180v0
c-241 0 -440 -81 -597 -244c-158 -163 -237 -370 -237 -619v0c0 -243 76 -431 228 -565c151 -134 364 -201 638 -201v0c161 0 302 27 422 82v0c45 21 92 49 141 82s94 78 136 135v0h180c-39 -80 -105 -157 -198 -230c-93 -74 -194 -128 -303 -162
c-110 -35 -237 -52 -382 -52v0c-314 0 -561 80 -741 239c-181 159 -271 376 -271 653v0c0 191 45 370 134 536c89 165 206 289 353 370c146 81 315 121 507 121v0c248 0 453 -74 614 -221s242 -334 242 -561v0c0 -118 -29 -232 -86 -343s-133 -201 -227 -268
c-94 -68 -191 -102 -291 -102v0c-67 0 -115 12 -143 37c-29 24 -46 67 -52 129v0c-44 -52 -93 -92 -146 -121s-106 -43 -159 -43v0c-103 0 -189 43 -258 128s-104 191 -104 318v0c0 105 25 207 74 306s114 179 195 240s164 91 249 91zM678 430v0c0 -83 20 -151 61 -204
c41 -54 92 -81 154 -81v0c93 0 176 52 251 155c74 103 111 220 111 349v0c0 87 -21 157 -63 210c-43 53 -99 79 -168 79v0c-90 0 -170 -52 -240 -155c-71 -104 -106 -222 -106 -353z" />
    <glyph glyph-name="A" unicode="A" horiz-adv-x="1366" 
d="M0 0l600 1405h141l625 -1405h-205l-186 414h-594l-176 -414h-205zM459 592h434l-225 506z" />
    <glyph glyph-name="B" unicode="B" horiz-adv-x="1153" 
d="M627 0v0h-473v1397h366c115 0 205 -15 270 -46s114 -74 148 -128c34 -55 51 -118 51 -189v0c0 -137 -71 -236 -213 -295v0c102 -19 183 -61 244 -126c60 -65 90 -142 90 -232v0c0 -71 -18 -135 -55 -191s-90 -102 -161 -137s-160 -53 -267 -53zM526 1219v0h-172v-420h133
c107 0 183 20 228 61s67 93 67 158v0c0 134 -85 201 -256 201zM541 621v0h-187v-443h197c109 0 184 9 223 26s70 43 94 79c23 36 35 75 35 116v0c0 43 -12 82 -37 117s-61 62 -107 79s-119 26 -218 26z" />
    <glyph glyph-name="C" unicode="C" horiz-adv-x="1450" 
d="M1358 324v0v-220c-147 -80 -316 -120 -508 -120v0c-156 0 -288 31 -397 94s-195 149 -258 259s-95 229 -95 357v0c0 203 73 374 218 513s323 208 536 208v0c147 0 310 -38 489 -115v0v-215c-163 93 -323 140 -479 140v0c-160 0 -293 -50 -398 -151
c-106 -101 -159 -228 -159 -380v0c0 -153 52 -279 156 -378s237 -148 399 -148v0c169 0 335 52 496 156z" />
    <glyph glyph-name="D" unicode="D" horiz-adv-x="1536" 
d="M598 2h-442v1395h471c190 0 340 -28 451 -85s199 -141 264 -252s98 -231 98 -362v0c0 -93 -18 -183 -54 -268s-87 -160 -154 -225v0c-68 -67 -147 -117 -237 -151v0c-53 -21 -101 -34 -145 -41s-128 -11 -252 -11v0zM606 1219v0h-250v-1039h256c100 0 178 7 233 21
c55 13 102 31 139 52s70 46 101 77v0c99 100 148 226 148 379v0c0 150 -51 272 -152 367v0c-37 35 -80 64 -128 87c-49 23 -95 38 -138 45s-113 11 -209 11z" />
    <glyph glyph-name="E" unicode="E" 
d="M154 2v1395h792v-178h-592v-426h572v-179h-572v-434h611v-178h-811z" />
    <glyph glyph-name="F" unicode="F" horiz-adv-x="961" 
d="M156 0v1397h745v-178h-545v-390h545v-178h-545v-651h-200z" />
    <glyph glyph-name="G" unicode="G" horiz-adv-x="1516" 
d="M909 510v178h469v-592c-172 -75 -343 -112 -512 -112v0c-231 0 -416 68 -554 203c-139 135 -208 301 -208 499v0c0 209 72 382 215 521s323 208 539 208v0c79 0 153 -8 224 -25s160 -49 268 -94v0v-204c-167 97 -332 145 -496 145v0c-153 0 -281 -52 -386 -156
s-157 -232 -157 -383v0c0 -159 52 -288 157 -389s239 -151 404 -151v0c80 0 176 18 287 55v0l19 6v291h-269z" />
    <glyph glyph-name="H" unicode="H" horiz-adv-x="1493" 
d="M1139 793v604h200v-1397h-200v608h-785v-608h-200v1397h200v-604h785z" />
    <glyph glyph-name="I" unicode="I" horiz-adv-x="512" 
d="M156 0v1397h200v-1397h-200z" />
    <glyph glyph-name="J" unicode="J" horiz-adv-x="512" 
d="M156 41v1356h200v-1379c0 -129 -13 -224 -39 -285c-27 -62 -69 -111 -128 -148s-129 -56 -212 -56v0c-13 0 -34 2 -65 6v0l-37 186h51c57 0 101 7 132 21c30 14 54 39 72 74c17 35 26 110 26 225v0z" />
    <glyph glyph-name="K" unicode="K" horiz-adv-x="1343" 
d="M356 758l588 639h250l-606 -662l755 -735h-274l-713 690v-690h-200v1397h200v-639z" />
    <glyph glyph-name="L" unicode="L" horiz-adv-x="1004" 
d="M154 0v1397h200v-1215h629v-182h-829z" />
    <glyph glyph-name="M" unicode="M" horiz-adv-x="1599" 
d="M803 823l463 574h186v-1397h-201v1087l-430 -540h-37l-434 540v-1087h-200v1397h188z" />
    <glyph glyph-name="N" unicode="N" horiz-adv-x="1599" 
d="M1264 313v1084h190v-1397h-172l-934 1075v-1075h-188v1397h162z" />
    <glyph glyph-name="O" unicode="O" horiz-adv-x="1686" 
d="M840 1417v0c216 0 396 -68 540 -205c143 -137 215 -308 215 -514v0c0 -206 -72 -376 -217 -511s-328 -203 -549 -203v0c-211 0 -386 68 -526 203c-141 135 -211 304 -211 507v0c0 209 71 381 212 518s320 205 536 205zM848 1227v0c-160 0 -291 -50 -394 -150
s-155 -228 -155 -383v0c0 -151 52 -276 155 -376s233 -150 388 -150v0c156 0 286 51 391 153c104 102 156 229 156 381v0c0 148 -52 273 -156 374c-105 101 -233 151 -385 151z" />
    <glyph glyph-name="P" unicode="P" horiz-adv-x="1044" 
d="M344 0h-201v1399h443c133 0 240 -36 319 -108s119 -169 119 -290v0c0 -81 -20 -153 -61 -216s-96 -108 -167 -136c-71 -29 -172 -43 -304 -43v0h-148v-606zM551 1221v0h-207v-437h219c81 0 144 19 188 58c44 38 66 93 66 164v0c0 143 -89 215 -266 215z" />
    <glyph glyph-name="Q" unicode="Q" horiz-adv-x="1686" 
d="M1563 -88v0l-201 -195c-63 3 -128 15 -196 34c-69 19 -138 45 -208 78c-71 33 -165 90 -282 171v0c-170 31 -310 111 -420 242c-111 131 -166 281 -166 452v0c0 209 71 381 213 518s322 205 539 205v0c216 0 396 -68 539 -203c143 -136 214 -307 214 -512v0
c0 -173 -54 -324 -162 -455s-248 -213 -419 -247v0l53 -20c165 -63 283 -95 356 -95v0c40 0 87 9 140 27zM842 1227v0c-157 0 -287 -51 -390 -152s-154 -229 -154 -383v0c0 -150 52 -275 155 -374c103 -100 233 -150 389 -150v0c154 0 284 51 389 153s158 228 158 377v0
c0 153 -52 279 -155 379s-234 150 -392 150z" />
    <glyph glyph-name="R" unicode="R" horiz-adv-x="1237" 
d="M360 0h-200v1397h350c141 0 254 -35 337 -105s124 -165 124 -284v0c0 -81 -20 -152 -61 -211s-99 -104 -175 -133v0c45 -29 88 -69 131 -120s103 -139 180 -265v0c49 -79 88 -139 117 -179v0l74 -100h-238l-61 92c-2 3 -6 9 -12 17v0l-39 55l-62 102l-67 109
c-41 57 -79 103 -113 137c-35 34 -66 59 -93 74c-28 15 -75 22 -140 22v0h-52v-608zM420 1227v0h-60v-441h76c101 0 171 9 209 26c37 17 67 44 88 79s31 74 31 119v0c0 44 -12 84 -35 120c-23 35 -56 60 -98 75c-43 15 -113 22 -211 22z" />
    <glyph glyph-name="S" unicode="S" horiz-adv-x="938" 
d="M500 586v0l-152 92c-95 58 -163 115 -203 172c-41 56 -61 121 -61 194v0c0 110 38 199 115 268c76 69 175 103 297 103v0c117 0 224 -33 321 -98v0v-227c-101 97 -209 145 -325 145v0c-65 0 -119 -15 -161 -45c-42 -31 -63 -70 -63 -117v0c0 -42 15 -81 46 -118
s80 -75 149 -115v0l153 -90c171 -101 256 -231 256 -388v0c0 -112 -37 -203 -112 -273s-173 -105 -293 -105v0c-138 0 -264 42 -377 127v0v254c108 -137 233 -205 375 -205v0c63 0 115 18 157 53c41 35 62 78 62 131v0c0 85 -61 166 -184 242z" />
    <glyph glyph-name="T" unicode="T" horiz-adv-x="1237" 
d="M35 1221v178h1167v-178h-487v-1221h-201v1221h-479z" />
    <glyph glyph-name="U" unicode="U" horiz-adv-x="1450" 
d="M1126 604v793h201v-793c0 -107 -8 -188 -23 -243c-16 -55 -35 -100 -58 -136c-23 -37 -52 -69 -85 -98v0c-111 -95 -255 -143 -434 -143v0c-182 0 -328 47 -438 142v0c-33 29 -61 62 -84 99c-23 36 -42 80 -57 133s-23 135 -23 248v0v791h201v-793
c0 -131 15 -223 45 -274s76 -92 137 -123s134 -47 217 -47v0c119 0 215 31 290 93v0c39 33 68 73 85 118s26 123 26 233v0z" />
    <glyph glyph-name="V" unicode="V" horiz-adv-x="1237" 
d="M621 416l417 981h199l-590 -1403h-45l-602 1403h201z" />
    <glyph glyph-name="W" unicode="W" horiz-adv-x="2134" 
d="M1552 434l381 963h199l-565 -1403h-43l-457 1136l-461 -1136h-43l-563 1403h201l385 -963l387 963h190z" />
    <glyph glyph-name="X" unicode="X" horiz-adv-x="1450" 
d="M729 864l436 533h242l-557 -674l596 -723h-242l-475 578l-481 -578h-244l602 723l-559 674h244z" />
    <glyph glyph-name="Y" unicode="Y" horiz-adv-x="1237" 
d="M616 915l379 482h242l-516 -658v-739h-205v739l-516 658h242z" />
    <glyph glyph-name="Z" unicode="Z" horiz-adv-x="1323" 
d="M82 1221v178h1204l-893 -1221h893v-178h-1261l895 1221h-838z" />
    <glyph glyph-name="bracketleft" unicode="[" horiz-adv-x="682" 
d="M176 -451v1848h477v-164h-280v-1520h280v-164h-477z" />
    <glyph glyph-name="backslash" unicode="\" horiz-adv-x="575" 
d="M570 -18h-144l-402 1434h145z" />
    <glyph glyph-name="bracketright" unicode="]" horiz-adv-x="682" 
d="M506 1397v-1848h-475v164h278v1520h-278v164h475z" />
    <glyph glyph-name="asciicircum" unicode="^" horiz-adv-x="961" 
d="M725 596l-246 598l-241 -598h-185l355 801h145l354 -801h-182z" />
    <glyph glyph-name="underscore" unicode="_" horiz-adv-x="1130" 
d="M1161 -274v-132h-1190v132h1190z" />
    <glyph glyph-name="grave" unicode="`" horiz-adv-x="683" 
d="M123 1419h204l138 -300h-112z" />
    <glyph glyph-name="a" unicode="a" horiz-adv-x="874" 
d="M707 553v0v-391c0 -31 11 -47 32 -47v0c22 0 56 16 103 49v0v-111c-41 -27 -74 -45 -99 -54c-25 -10 -52 -15 -79 -15v0c-78 0 -124 31 -138 92v0c-77 -60 -160 -90 -247 -90v0c-64 0 -117 21 -160 64c-43 42 -64 95 -64 159v0c0 58 21 110 63 156c41 45 100 81 177 108
v0l233 80v49c0 111 -55 166 -166 166v0c-99 0 -196 -51 -290 -154v0v199c71 83 172 125 305 125v0c99 0 179 -26 239 -78v0c20 -17 38 -39 54 -66c16 -28 26 -56 31 -83c4 -28 6 -81 6 -158zM528 182v0v273l-122 -47c-62 -25 -106 -49 -131 -74c-26 -25 -39 -57 -39 -94v0
c0 -38 12 -69 37 -93c24 -24 55 -36 94 -36v0c58 0 112 24 161 71z" />
    <glyph glyph-name="b" unicode="b" 
d="M121 51v1346h182v-543c79 57 163 86 252 86v0c117 0 212 -44 286 -132s111 -201 111 -339v0c0 -148 -44 -266 -132 -353c-89 -88 -207 -132 -355 -132v0c-59 0 -122 6 -187 19c-66 13 -118 29 -157 48v0zM303 680v0v-498c62 -19 126 -28 191 -28v0c81 0 147 29 198 86
s76 131 76 221v0c0 91 -24 166 -71 223c-48 57 -110 86 -187 86v0c-68 0 -137 -30 -207 -90z" />
    <glyph glyph-name="c" unicode="c" horiz-adv-x="897" 
d="M819 215v0v-180c-91 -34 -181 -51 -268 -51v0c-144 0 -259 43 -344 128c-86 85 -129 200 -129 343v0c0 145 42 261 125 350s193 133 329 133v0c47 0 90 -4 128 -13c37 -9 84 -26 139 -51v0v-194c-92 59 -177 88 -256 88v0c-82 0 -149 -29 -202 -86
c-53 -58 -79 -132 -79 -221v0c0 -94 29 -169 86 -224s133 -83 230 -83v0c70 0 150 20 241 61z" />
    <glyph glyph-name="d" unicode="d" horiz-adv-x="1044" 
d="M743 901v496h183v-1397h-389c-136 0 -244 43 -325 129s-122 201 -122 346v0c0 135 43 247 128 334s193 131 325 131v0c61 0 128 -13 200 -39v0zM602 156h141v583c-57 29 -114 43 -172 43v0c-91 0 -163 -30 -216 -89c-54 -59 -81 -139 -81 -240v0c0 -95 23 -168 70 -219v0
c28 -31 58 -51 89 -62s88 -16 169 -16v0z" />
    <glyph glyph-name="e" unicode="e" horiz-adv-x="981" 
d="M913 467v-23h-647c5 -88 34 -158 89 -210c54 -52 124 -78 210 -78v0c120 0 231 37 332 112v0v-178c-56 -37 -111 -64 -166 -80s-120 -24 -194 -24v0c-101 0 -183 21 -246 63s-113 99 -150 170c-38 71 -57 153 -57 246v0c0 140 40 254 119 342c79 87 182 131 309 131v0
c122 0 219 -43 292 -128s109 -200 109 -343v0zM270 553v0h463c-5 73 -26 129 -65 168s-91 59 -156 59v0c-65 0 -119 -20 -160 -59c-42 -39 -69 -95 -82 -168z" />
    <glyph glyph-name="f" unicode="f" horiz-adv-x="512" 
d="M18 920h132v55c0 148 32 258 95 331s138 109 226 109v0c38 0 83 -6 135 -18v0v-178c-29 11 -57 16 -84 16v0c-71 0 -121 -19 -148 -57c-28 -38 -42 -106 -42 -203v0v-55h164v-164h-164v-756h-182v756h-132v164z" />
    <glyph glyph-name="g" unicode="g" horiz-adv-x="874" 
d="M82 602v0c0 98 36 176 108 233c71 57 169 85 293 85v0h379v-142h-186c36 -37 61 -70 75 -100s21 -64 21 -103v0c0 -48 -14 -95 -41 -141c-27 -47 -62 -82 -105 -107s-114 -44 -212 -59v0c-69 -10 -103 -34 -103 -71v0c0 -21 13 -39 39 -52c25 -14 72 -28 139 -43v0
c113 -25 185 -44 218 -58c32 -14 61 -34 87 -60v0c44 -44 66 -99 66 -166v0c0 -87 -39 -157 -116 -209c-78 -52 -182 -78 -312 -78v0c-131 0 -236 26 -314 79c-79 52 -118 122 -118 210v0c0 125 77 205 231 241v0c-61 39 -92 78 -92 117v0c0 29 13 56 40 80
c26 24 61 42 106 53v0c-135 60 -203 157 -203 291zM424 762v0c-49 0 -91 -17 -126 -50s-52 -73 -52 -120v0c0 -47 17 -86 51 -117s77 -47 129 -47v0c51 0 94 16 129 48c34 31 51 71 51 118v0c0 48 -17 88 -52 120s-78 48 -130 48zM381 -43v0c-61 0 -111 -13 -150 -39
s-59 -59 -59 -100v0c0 -95 85 -142 256 -142v0c81 0 143 12 188 36c44 23 66 57 66 100v0c0 43 -28 78 -84 105s-128 40 -217 40z" />
    <glyph glyph-name="h" unicode="h" 
d="M125 0v1397h182v-598c76 93 170 139 283 139v0c61 0 116 -15 165 -46s85 -73 109 -127c23 -54 35 -134 35 -241v0v-524h-182v569c0 67 -16 122 -49 163s-77 61 -131 61v0c-40 0 -78 -10 -113 -31s-74 -55 -117 -103v0v-659h-182z" />
    <glyph glyph-name="i" unicode="i" horiz-adv-x="449" 
d="M223 1307v0c30 0 56 -10 77 -31s32 -46 32 -76v0c0 -29 -11 -55 -32 -76s-47 -32 -77 -32v0c-28 0 -53 11 -74 33c-21 21 -32 46 -32 75v0c0 28 11 53 32 75c21 21 46 32 74 32zM133 0v920h182v-920h-182z" />
    <glyph glyph-name="j" unicode="j" horiz-adv-x="449" 
d="M213 1307v0c30 0 56 -10 77 -31s32 -47 32 -76v0c0 -31 -10 -56 -30 -77c-21 -21 -46 -31 -77 -31v0c-29 0 -54 11 -76 32s-33 47 -33 76v0c0 28 11 53 33 75c21 21 46 32 74 32zM127 -131v1051h182v-1051c0 -159 -61 -272 -184 -338v0l-135 133c42 15 75 40 100 77
s37 79 37 128v0z" />
    <glyph glyph-name="k" unicode="k" horiz-adv-x="981" 
d="M319 469l408 451h217l-393 -451l473 -469h-244zM129 0v1397h182v-1397h-182z" />
    <glyph glyph-name="l" unicode="l" horiz-adv-x="449" 
d="M133 0v1397h182v-1397h-182z" />
    <glyph glyph-name="m" unicode="m" horiz-adv-x="1579" 
d="M883 668v0v-668h-183v512c0 102 -14 173 -41 214c-27 40 -75 60 -143 60v0c-38 0 -73 -9 -104 -26c-32 -17 -68 -48 -109 -92v0v-668h-182v920h182v-121c93 93 183 139 272 139v0c117 0 207 -55 271 -166v0c97 112 199 168 305 168v0c89 0 163 -33 221 -98
c57 -65 86 -165 86 -299v0v-543h-182v545c0 77 -16 135 -47 176s-76 61 -135 61v0c-75 0 -146 -38 -211 -114z" />
    <glyph glyph-name="n" unicode="n" 
d="M125 920h186v-117c81 90 174 135 277 135v0c57 0 111 -15 160 -44c49 -30 87 -71 113 -122c25 -52 38 -134 38 -246v0v-526h-182v524c0 94 -14 161 -43 202c-29 40 -77 60 -144 60v0c-86 0 -159 -43 -219 -129v0v-657h-186v920z" />
    <glyph glyph-name="o" unicode="o" horiz-adv-x="1130" 
d="M569 922v0c140 0 256 -45 349 -135c93 -91 139 -204 139 -341v0c0 -133 -47 -243 -141 -330c-94 -88 -212 -132 -355 -132v0c-138 0 -253 45 -346 134s-139 200 -139 333v0c0 135 47 247 141 337c93 89 211 134 352 134zM559 758v0c-87 0 -159 -29 -215 -86
s-84 -130 -84 -219v0c0 -88 29 -160 86 -215c57 -56 131 -84 221 -84v0c89 0 163 28 220 85c57 56 85 128 85 216v0c0 87 -30 160 -89 217s-134 86 -224 86z" />
    <glyph glyph-name="p" unicode="p" 
d="M303 -469h-186v1389h319c163 0 291 -41 382 -122s136 -195 136 -341v0c0 -138 -43 -251 -128 -340c-86 -89 -195 -133 -328 -133v0c-59 0 -124 13 -195 39v0v-492zM432 750v0h-129v-566c56 -29 115 -43 176 -43v0c85 0 155 30 210 89c54 59 81 136 81 229v0
c0 60 -13 113 -38 159c-26 46 -61 80 -105 101c-45 21 -110 31 -195 31z" />
    <glyph glyph-name="q" unicode="q" 
d="M563 920v0h344v-1389h-182v485c-79 -21 -146 -32 -201 -32v0c-131 0 -239 44 -324 132s-128 200 -128 335v0c0 143 44 257 133 342s208 127 358 127zM712 170l13 4v576h-115c-79 0 -131 -3 -157 -10c-27 -7 -50 -17 -69 -29c-19 -13 -37 -28 -53 -46v0
c-50 -57 -75 -127 -75 -210v0c0 -94 28 -171 85 -230c56 -60 129 -90 218 -90v0c21 0 38 1 51 4s43 12 88 27v0z" />
    <glyph glyph-name="r" unicode="r" horiz-adv-x="811" 
d="M141 920h183v-211l10 16c88 142 176 213 264 213v0c69 0 140 -35 215 -104v0l-96 -160c-63 60 -122 90 -176 90v0c-59 0 -109 -28 -152 -84s-65 -122 -65 -199v0v-481h-183v920z" />
    <glyph glyph-name="s" unicode="s" horiz-adv-x="788" 
d="M84 66v0v196c51 -36 104 -65 158 -87c53 -23 98 -34 135 -34v0c38 0 71 9 98 28s41 41 41 67v0c0 27 -9 49 -26 67c-18 17 -56 43 -115 76v0c-117 65 -194 121 -230 168c-37 46 -55 96 -55 151v0c0 71 28 128 83 173s125 67 212 67v0c90 0 182 -25 277 -76v0v-180
c-108 65 -196 98 -265 98v0c-35 0 -64 -7 -85 -22c-22 -15 -33 -35 -33 -60v0c0 -21 10 -42 30 -61c19 -19 54 -43 103 -70v0l65 -37c153 -87 230 -183 230 -288v0c0 -75 -29 -137 -88 -185c-59 -49 -135 -73 -228 -73v0c-55 0 -103 6 -146 18c-43 11 -96 33 -161 64z" />
    <glyph glyph-name="t" unicode="t" horiz-adv-x="682" 
d="M0 756v18l342 336v-190h291v-164h-291v-451c0 -105 44 -158 131 -158v0c65 0 134 22 207 66v0v-170c-70 -39 -146 -59 -229 -59v0c-83 0 -153 24 -208 73v0c-17 15 -32 31 -43 50c-11 18 -21 42 -28 72c-8 29 -12 86 -12 169v0v408h-160z" />
    <glyph glyph-name="u" unicode="u" 
d="M897 0h-182v117c-39 -42 -83 -75 -132 -98c-50 -23 -100 -35 -149 -35v0c-58 0 -111 15 -160 44s-86 68 -111 118c-25 49 -38 132 -38 247v0v527h182v-525c0 -97 14 -164 42 -202c27 -39 76 -58 145 -58v0c87 0 160 42 221 127v0v658h182v-920z" />
    <glyph glyph-name="v" unicode="v" horiz-adv-x="897" 
d="M453 354l239 566h197l-406 -936h-61l-416 936h199z" />
    <glyph glyph-name="w" unicode="w" horiz-adv-x="1473" 
d="M1038 362l240 558h195l-406 -936h-57l-273 641l-268 -641h-59l-410 936h195l241 -558l234 558h135z" />
    <glyph glyph-name="x" unicode="x" 
d="M502 604l262 316h233l-379 -453l406 -467h-233l-289 330l-273 -330h-229l387 467l-387 453h229z" />
    <glyph glyph-name="y" unicode="y" horiz-adv-x="897" 
d="M455 401l237 519h205l-651 -1389h-203l313 666l-356 723h207z" />
    <glyph glyph-name="z" unicode="z" horiz-adv-x="854" 
d="M43 750v170h786l-487 -750h487v-170h-806l483 750h-463z" />
    <glyph glyph-name="braceleft" unicode="{" horiz-adv-x="682" 
d="M57 449v0v163c48 0 89 12 122 36c33 23 55 58 67 105c11 46 17 128 18 246v0c1 141 6 235 15 281c8 45 27 87 57 124v0c26 33 57 55 92 68s86 19 152 19v0h57v-156h-33c-70 0 -116 -13 -137 -39c-22 -27 -33 -83 -33 -168v0v-147c0 -89 -6 -161 -19 -217
c-13 -57 -33 -103 -60 -138c-28 -36 -72 -68 -132 -96v0c79 -33 134 -82 165 -148s46 -167 46 -304v0v-144c0 -85 11 -141 32 -167s67 -39 138 -39v0h33v-156h-57c-68 0 -120 7 -155 20c-36 13 -67 36 -92 69v0c-29 38 -47 80 -55 125s-13 137 -14 275v0
c-1 120 -7 203 -19 249c-13 46 -36 81 -71 104s-74 35 -117 35z" />
    <glyph glyph-name="bar" unicode="|" horiz-adv-x="532" 
d="M345 -472h-157v1869h157v-1869z" />
    <glyph glyph-name="braceright" unicode="}" horiz-adv-x="682" 
d="M47 1335v156h55c67 0 119 -6 155 -19s66 -37 91 -70v0c29 -39 48 -81 57 -126c8 -45 13 -138 15 -277v0c0 -117 6 -199 17 -246s34 -82 67 -105c33 -24 73 -36 121 -36v0v-163c-43 0 -83 -12 -118 -35c-35 -24 -59 -59 -71 -106s-18 -130 -19 -247v0
c-1 -139 -5 -231 -13 -276c-8 -46 -27 -88 -56 -126v0c-26 -33 -56 -56 -91 -68c-35 -13 -86 -19 -155 -19v0h-55v156h31c71 0 118 13 140 39c21 26 32 82 32 167v0v144c0 136 15 237 46 304c31 66 85 115 163 148v0c-57 27 -98 56 -125 87s-47 75 -62 134
c-15 58 -22 135 -22 230v0v147c0 86 -11 142 -33 168s-68 39 -139 39v0h-31z" />
    <glyph glyph-name="asciitilde" unicode="~" horiz-adv-x="1194" 
d="M348 670v0c-46 0 -88 -9 -125 -28s-83 -55 -137 -107v0v204c73 81 166 121 279 121v0c77 0 168 -23 274 -69v0l80 -35c41 -19 86 -29 133 -29v0c88 0 174 45 258 135v0v-211c-81 -76 -173 -114 -276 -114v0c-70 0 -152 20 -246 61v0l-62 27c-69 30 -129 45 -178 45z" />
    <glyph glyph-name="nbsp" unicode="&#xa0;" horiz-adv-x="569" 
 />
    <glyph glyph-name="exclamdown" unicode="&#xa1;" horiz-adv-x="555" 
d="M152 924v0c0 33 12 62 37 87c25 24 54 36 87 36v0c35 0 65 -12 89 -35c24 -24 36 -53 36 -88v0c0 -36 -12 -66 -35 -90c-23 -25 -52 -37 -87 -37v0c-36 0 -66 12 -90 37c-25 24 -37 54 -37 90zM207 379v0l14 74c13 69 24 115 31 136s14 32 22 32v0c11 0 19 -11 25 -33v0
c0 -4 5 -22 16 -53v0c15 -43 31 -135 48 -275s26 -259 26 -358v0c0 -195 -38 -293 -113 -293v0c-76 0 -114 96 -114 287v0c0 165 15 326 45 483z" />
    <glyph glyph-name="cent" unicode="&#xa2;" horiz-adv-x="897" 
d="M618 932l121 338h95l-129 -359c13 -5 21 -8 24 -8v0c28 -10 51 -20 68 -31v0v-192c-42 34 -92 59 -150 74v0l-209 -576c49 -17 92 -26 129 -26v0c43 0 88 6 135 18c47 11 85 26 115 45v0v-176c-97 -38 -189 -57 -278 -57v0c-59 0 -113 6 -162 18v0l-141 -387h-97l158 426
c-68 38 -121 93 -160 166s-59 153 -59 241v0c0 149 42 269 126 358c83 89 195 134 335 134v0c17 0 43 -2 79 -6v0zM362 223v0l197 545h-18c-83 0 -150 -29 -201 -87c-52 -59 -78 -135 -78 -228v0c0 -94 33 -171 100 -230z" />
    <glyph glyph-name="sterling" unicode="&#xa3;" horiz-adv-x="1087" 
d="M694 -8v0l-108 16c-48 7 -97 10 -148 10v0c-111 0 -216 -11 -317 -34v0l162 602h-148v178h195c35 129 80 246 135 353c55 106 115 182 180 229c64 46 131 69 201 69v0c18 0 43 -3 74 -8v0l114 -213c-39 21 -87 31 -145 31v0c-73 0 -137 -32 -192 -96s-105 -165 -150 -302
v0l-21 -63h156v-178h-209l-102 -387c20 3 46 4 78 4v0c73 0 134 -4 182 -13v0l80 -14c25 -5 57 -8 98 -8v0c89 0 158 15 207 45v0v-195c-71 -23 -140 -34 -205 -34v0c-43 0 -82 3 -117 8z" />
    <glyph glyph-name="currency" unicode="&#xa4;" horiz-adv-x="1130" 
d="M213 934v0l-139 136l115 119l139 -140c35 25 73 43 113 55c39 12 81 18 124 18v0c44 0 86 -6 126 -18c39 -12 76 -30 111 -55v0l139 140l116 -119l-139 -136c47 -73 71 -152 71 -235v0c0 -84 -24 -163 -71 -236v0l139 -136l-116 -119l-139 140c-35 -24 -72 -42 -111 -54
c-40 -13 -82 -19 -126 -19v0c-43 0 -85 6 -124 19c-40 12 -78 30 -113 54v0l-139 -140l-115 119l139 136c-47 73 -71 152 -71 236v0c0 83 24 162 71 235zM305 699v0c0 -72 25 -133 76 -184s112 -76 183 -76v0c71 0 132 25 183 76s76 112 76 184v0c0 71 -25 132 -75 183
c-51 51 -112 76 -184 76v0c-71 0 -132 -25 -183 -76s-76 -112 -76 -183z" />
    <glyph glyph-name="yen" unicode="&#xa5;" horiz-adv-x="1130" 
d="M659 326v-326h-182v326h-416v137h416v143h-416v150h342l-403 710h199l288 -516c33 -57 59 -108 76 -153v0c13 28 40 82 82 161v0l275 508h213l-404 -710h340v-150h-410v-143h410v-137h-410z" />
    <glyph glyph-name="brokenbar" unicode="&#xa6;" horiz-adv-x="532" 
d="M345 701h-157v696h157v-696zM345 -472h-157v832h157v-832z" />
    <glyph glyph-name="section" unicode="&#xa7;" horiz-adv-x="831" 
d="M145 1098v0c0 91 29 166 88 227c59 60 132 90 220 90v0c71 0 130 -16 175 -48c45 -33 68 -75 68 -126v0c0 -33 -10 -60 -30 -81s-45 -32 -76 -32v0c-23 0 -43 8 -58 25c-16 16 -24 36 -24 61v0v11c1 5 2 11 2 16v0c0 29 -21 43 -64 43v0c-42 0 -75 -12 -100 -37
s-37 -59 -37 -102v0c0 -86 60 -186 180 -299v0l95 -88c44 -41 85 -95 124 -163c39 -69 58 -139 58 -212v0c0 -60 -12 -114 -35 -162c-23 -49 -62 -100 -117 -155v0c48 -66 72 -141 72 -224v0c0 -87 -30 -160 -91 -220c-61 -61 -136 -91 -224 -91v0c-70 0 -128 17 -173 52
c-46 34 -69 77 -69 130v0c0 35 11 65 33 90s49 37 80 37v0c29 0 52 -9 71 -27c18 -19 27 -42 27 -71v0c0 -11 -1 -23 -4 -34v0c-1 -5 -2 -9 -2 -11v0c0 -9 5 -17 14 -24s20 -11 33 -11v0c40 0 75 15 104 44s43 64 43 104v0c0 42 -15 86 -45 133s-86 114 -168 202v0
c-74 74 -126 133 -155 176s-52 90 -69 142s-25 103 -25 153v0c0 108 45 203 135 285v0c-37 64 -56 130 -56 197zM434 643v0l-147 143c-43 -49 -64 -100 -64 -151v0c0 -27 6 -57 18 -89c11 -33 28 -64 49 -94c21 -31 67 -84 140 -161v0l100 -107c23 23 41 51 55 83
s21 62 21 89v0c0 27 -4 54 -12 80c-9 25 -21 50 -37 73s-57 68 -123 134z" />
    <glyph glyph-name="dieresis" unicode="&#xa8;" horiz-adv-x="683" 
d="M148 1366v0c26 0 49 -9 68 -28s28 -41 28 -68v0c0 -27 -9 -49 -27 -67c-18 -19 -40 -28 -66 -28v0c-27 0 -49 10 -68 29s-28 41 -28 67v0c0 27 9 49 28 68c18 18 40 27 65 27zM533 1366v0c26 0 49 -9 68 -28s28 -41 28 -68v0c0 -27 -9 -49 -27 -67
c-18 -19 -40 -28 -66 -28v0c-27 0 -49 10 -68 29s-28 41 -28 67v0c0 27 9 49 28 68c18 18 40 27 65 27z" />
    <glyph glyph-name="copyright" unicode="&#xa9;" horiz-adv-x="1516" 
d="M1108 850v0l-119 -29c-41 103 -116 154 -227 154v0c-80 0 -144 -29 -191 -86c-47 -58 -71 -135 -71 -232v0c0 -96 23 -171 68 -226s106 -83 184 -83v0c61 0 113 17 158 52c44 34 74 81 89 140v0l123 -36c-21 -85 -63 -152 -128 -201s-143 -74 -236 -74v0
c-120 0 -216 39 -288 118s-108 183 -108 314v0c0 131 36 235 109 311c72 75 170 113 295 113v0c87 0 161 -20 220 -61s99 -99 122 -174zM758 1417v0c135 0 260 -34 377 -101c117 -68 209 -160 277 -276c67 -117 101 -242 101 -377v0c0 -135 -34 -261 -101 -377
s-159 -208 -276 -275s-243 -101 -378 -101v0c-136 0 -262 34 -379 101s-209 158 -276 275c-67 116 -101 242 -101 377v0c0 135 34 261 102 378c67 116 159 208 276 275s243 101 378 101zM758 1292v0c-173 0 -321 -61 -444 -184s-185 -272 -185 -445v0
c0 -174 61 -322 184 -444c123 -123 271 -184 445 -184v0c173 0 321 61 444 184s184 271 184 444v0c0 173 -61 322 -184 445s-271 184 -444 184z" />
    <glyph glyph-name="ordfeminine" unicode="&#xaa;" horiz-adv-x="575" 
d="M473 1182v0v-207c0 -30 3 -45 10 -45v0c11 0 36 14 76 41v0v-86c-51 -31 -94 -47 -127 -47v0c-51 0 -82 16 -94 47v0c-49 -31 -100 -47 -154 -47v0c-43 0 -80 14 -109 41s-44 61 -44 102v0c0 72 55 125 164 160v0l139 45v24c0 60 -31 90 -92 90v0c-35 0 -67 -8 -97 -23
c-30 -16 -65 -44 -104 -83v0v141c49 53 118 80 207 80v0c80 0 138 -18 173 -54c35 -37 52 -96 52 -179zM334 965v0v147l-64 -22c-36 -13 -61 -27 -76 -41s-22 -31 -22 -52v0c0 -46 24 -69 72 -69v0c29 0 59 12 90 37z" />
    <glyph glyph-name="guillemotleft" unicode="&#xab;" horiz-adv-x="1004" 
d="M956 920l-303 -459l303 -461h-180l-301 461l301 459h180zM541 920l-303 -459l303 -461h-181l-303 461l303 459h181z" />
    <glyph glyph-name="logicalnot" unicode="&#xac;" horiz-adv-x="1196" 
d="M1081 863v-606h-170v438h-798v168h968z" />
    <glyph glyph-name="uni00AD" unicode="&#xad;" horiz-adv-x="661" 
d="M82 550h498v-194h-498v194z" />
    <glyph glyph-name="registered" unicode="&#xae;" horiz-adv-x="1516" 
d="M587 603v-345h-131v811h281c99 0 170 -8 211 -23c41 -16 73 -42 98 -79s37 -76 37 -117v0c0 -62 -22 -114 -65 -157s-99 -67 -167 -72v0c31 -13 60 -33 87 -62s61 -77 102 -143v0l98 -158h-160l-71 127c-51 91 -92 151 -122 178s-70 40 -120 40v0h-78zM737 959h-150v-244
h160c68 0 118 10 149 30c31 19 47 50 47 93v0c0 45 -15 76 -45 94c-31 18 -84 27 -161 27v0zM758 1417v0c135 0 260 -34 377 -101c117 -68 209 -160 277 -276c67 -117 101 -242 101 -377v0c0 -135 -34 -261 -101 -377s-159 -208 -276 -275s-243 -101 -378 -101v0
c-136 0 -262 34 -379 101s-209 158 -276 275c-67 116 -101 242 -101 377v0c0 135 34 261 102 378c67 116 159 208 276 275s243 101 378 101zM758 1292v0c-173 0 -321 -61 -444 -184s-185 -272 -185 -445v0c0 -174 61 -322 184 -444c123 -123 271 -184 445 -184v0
c173 0 321 61 444 184s184 271 184 444v0c0 173 -61 322 -184 445s-271 184 -444 184z" />
    <glyph glyph-name="macron" unicode="&#xaf;" horiz-adv-x="1130" 
d="M1165 1496h-1200v132h1200v-132z" />
    <glyph glyph-name="degree" unicode="&#xb0;" horiz-adv-x="811" 
d="M127 1214v0c0 76 27 141 82 196c55 54 120 81 197 81v0c76 0 141 -27 195 -81c54 -55 81 -120 81 -196v0c0 -77 -27 -142 -81 -196c-54 -55 -119 -82 -195 -82v0c-77 0 -142 27 -197 82c-55 54 -82 119 -82 196zM236 1214v0c0 -47 17 -87 50 -120s73 -50 120 -50v0
c46 0 85 17 118 50s49 73 49 120v0c0 47 -16 86 -48 119c-33 33 -72 49 -119 49v0c-47 0 -87 -16 -120 -49s-50 -72 -50 -119z" />
    <glyph glyph-name="plusminus" unicode="&#xb1;" horiz-adv-x="1196" 
d="M683 260h-170v403h-399v167h399v399h170v-399h399v-167h-399v-403zM1082 168v-168h-968v168h968z" />
    <glyph glyph-name="uni00B2" unicode="&#xb2;" horiz-adv-x="662" 
d="M309 805l-12 -14h307v-111h-547v14l6 6c6 7 18 20 37 39v0c83 85 154 166 213 241s88 139 88 193v0c0 39 -12 70 -35 93c-24 23 -56 34 -96 34v0c-69 0 -133 -39 -194 -118v0v159c67 49 137 74 209 74v0c75 0 138 -21 187 -64s73 -97 73 -163v0c0 -26 -5 -54 -16 -84
c-11 -31 -24 -59 -41 -84s-76 -97 -179 -215v0z" />
    <glyph glyph-name="uni00B3" unicode="&#xb3;" horiz-adv-x="662" 
d="M233 1001v107h13c102 0 153 34 153 102v0c0 30 -12 54 -35 72c-24 18 -56 27 -96 27v0c-39 0 -90 -14 -153 -41v0v112c51 23 107 35 168 35v0c79 0 141 -18 187 -53c46 -36 69 -84 69 -145v0c0 -69 -32 -120 -97 -154v0c74 -28 111 -85 111 -170v0
c0 -65 -25 -118 -75 -160c-51 -42 -114 -63 -191 -63v0c-63 0 -127 15 -193 45v0v129c69 -40 133 -60 193 -60v0c37 0 66 10 87 29s32 44 32 76v0c0 35 -11 61 -34 78s-61 28 -114 32v0z" />
    <glyph glyph-name="acute" unicode="&#xb4;" horiz-adv-x="683" 
d="M363 1419h203l-226 -300h-112z" />
    <glyph glyph-name="mu" unicode="&#xb5;" horiz-adv-x="1130" 
d="M952 0h-159v109c-31 -47 -63 -81 -97 -100s-77 -29 -129 -29v0c-47 0 -87 8 -118 25c-32 16 -64 45 -97 87v0v-442h-174v1270h174v-447c0 -97 7 -167 21 -209c13 -43 37 -77 70 -104s72 -41 116 -41v0c45 0 86 13 122 38s61 59 76 100c14 41 21 111 21 212v0v451h174
v-920z" />
    <glyph glyph-name="paragraph" unicode="&#xb6;" horiz-adv-x="1110" 
d="M569 1292v-1698h-163v1043c-124 7 -222 48 -295 122c-73 73 -109 170 -109 290v0c0 126 40 227 121 303v0c35 33 79 60 133 82c54 21 126 32 217 32v0h633v-174h-143v-1698h-170v1698h-224z" />
    <glyph glyph-name="periodcentered" unicode="&#xb7;" horiz-adv-x="683" 
d="M741 720v0c0 -29 -10 -54 -31 -75s-46 -32 -76 -32v0c-30 0 -55 11 -76 32s-32 47 -32 77v0c0 29 11 55 32 76s46 31 76 31v0c29 0 55 -10 76 -31s31 -47 31 -78z" />
    <glyph glyph-name="cedilla" unicode="&#xb8;" horiz-adv-x="683" 
d="M311 16h117l-15 -49c36 -9 64 -25 85 -50c20 -25 30 -53 30 -84v0c0 -51 -20 -94 -61 -129c-41 -36 -106 -54 -195 -54v0c-25 0 -46 2 -65 5v0v113c34 -3 55 -4 64 -4v0c38 0 68 7 89 22v0c13 9 19 20 19 34v0c0 16 -7 29 -20 40c-14 11 -39 16 -76 16v0
c-7 0 -15 -1 -23 -3v0z" />
    <glyph glyph-name="uni00B9" unicode="&#xb9;" horiz-adv-x="662" 
d="M260 680v727h141v-727h-141z" />
    <glyph glyph-name="ordmasculine" unicode="&#xba;" horiz-adv-x="748" 
d="M360 1415v0c101 0 183 -26 246 -79s94 -122 94 -206v0c0 -80 -31 -147 -94 -200s-141 -80 -235 -80v0c-92 0 -169 27 -231 82c-62 54 -93 122 -93 203v0c0 81 29 148 88 201s134 79 225 79zM371 1307v0c-52 0 -95 -17 -129 -50c-35 -34 -52 -76 -52 -127v0
c0 -49 17 -88 52 -119c34 -31 78 -46 133 -46v0c54 0 98 16 133 48c34 31 51 72 51 122v0c0 50 -18 91 -53 124c-36 32 -81 48 -135 48z" />
    <glyph glyph-name="guillemotright" unicode="&#xbb;" horiz-adv-x="1004" 
d="M47 0l303 459l-303 461h178l303 -461l-303 -459h-178zM463 0l303 459l-303 461h178l303 -461l-303 -459h-178z" />
    <glyph glyph-name="onequarter" unicode="&#xbc;" horiz-adv-x="1729" 
d="M258 680v727h141v-727h-141zM355 -53l928 1468h139l-930 -1468h-137zM1100 287l420 450h67v-401h92v-100h-92v-236h-139v236h-348v51zM1288 336h160v172z" />
    <glyph glyph-name="onehalf" unicode="&#xbd;" horiz-adv-x="1729" 
d="M258 680v727h141v-727h-141zM294 -53l928 1468h139l-930 -1468h-137zM1378 126l-12 -14h307v-111h-547v14l6 6c6 7 18 20 37 39v0c83 85 154 166 213 241s88 139 88 193v0c0 39 -12 70 -35 93c-24 23 -56 34 -96 34v0c-69 0 -133 -39 -194 -118v0v159
c67 49 137 74 209 74v0c75 0 138 -21 187 -64s73 -97 73 -163v0c0 -26 -5 -54 -16 -84c-11 -31 -24 -59 -41 -84s-76 -97 -179 -215v0z" />
    <glyph glyph-name="threequarters" unicode="&#xbe;" horiz-adv-x="1729" 
d="M231 1001v107h13c102 0 153 34 153 102v0c0 30 -12 54 -35 72c-24 18 -56 27 -96 27v0c-39 0 -90 -14 -153 -41v0v112c51 23 107 35 168 35v0c79 0 141 -18 187 -53c46 -36 69 -84 69 -145v0c0 -69 -32 -120 -97 -154v0c74 -28 111 -85 111 -170v0
c0 -65 -25 -118 -75 -160c-51 -42 -114 -63 -191 -63v0c-63 0 -127 15 -193 45v0v129c69 -40 133 -60 193 -60v0c37 0 66 10 87 29s32 44 32 76v0c0 35 -11 61 -34 78s-61 28 -114 32v0zM331 -53l928 1468h139l-930 -1468h-137zM1100 287l420 450h67v-401h92v-100h-92v-236
h-139v236h-348v51zM1288 336h160v172z" />
    <glyph glyph-name="questiondown" unicode="&#xbf;" horiz-adv-x="682" 
d="M594 -172v0l-133 -217c-104 2 -185 31 -242 87s-86 126 -86 210v0c0 53 11 110 33 169c21 59 69 146 144 260v0c88 135 132 231 132 288v0c0 7 -2 22 -6 43v0c45 -21 78 -47 97 -76c19 -30 28 -69 28 -117v0c0 -47 -8 -88 -23 -125c-16 -37 -54 -102 -113 -197v0
c-57 -91 -85 -164 -85 -221v0c0 -42 13 -75 38 -100s58 -37 101 -37v0c32 0 70 11 115 33zM287 922v0c0 33 12 62 37 85c24 23 53 35 88 35v0c35 0 64 -11 88 -34c23 -23 35 -52 35 -86v0c0 -35 -12 -64 -36 -87c-24 -24 -53 -36 -87 -36v0c-35 0 -65 12 -89 36
c-24 23 -36 52 -36 87z" />
    <glyph glyph-name="Agrave" unicode="&#xc0;" horiz-adv-x="1366" 
d="M0 0l600 1405h141l625 -1405h-205l-186 414h-594l-176 -414h-205zM459 592h434l-225 506zM433 1800h204l138 -300h-112z" />
    <glyph glyph-name="Aacute" unicode="&#xc1;" horiz-adv-x="1366" 
d="M0 0l600 1405h141l625 -1405h-205l-186 414h-594l-176 -414h-205zM459 592h434l-225 506zM705 1800h203l-226 -300h-112z" />
    <glyph glyph-name="Acircumflex" unicode="&#xc2;" horiz-adv-x="1366" 
d="M0 0l600 1405h141l625 -1405h-205l-186 414h-594l-176 -414h-205zM459 592h434l-225 506zM585 1809h190l193 -309h-112l-179 177l-171 -177h-108z" />
    <glyph glyph-name="Atilde" unicode="&#xc3;" horiz-adv-x="1366" 
d="M0 0l600 1405h141l625 -1405h-205l-186 414h-594l-176 -414h-205zM459 592h434l-225 506zM886 1777h78c-1 -81 -19 -144 -56 -189v0c-28 -35 -63 -53 -105 -53v0c-37 0 -86 13 -148 40s-109 40 -140 40v0c-17 0 -32 -7 -45 -20s-20 -33 -23 -60v0h-84
c11 94 30 157 58 189c28 31 63 47 106 47v0c39 0 102 -18 189 -53v0c45 -18 77 -27 96 -27v0c19 0 35 7 48 20s21 35 26 66v0z" />
    <glyph glyph-name="Adieresis" unicode="&#xc4;" horiz-adv-x="1366" 
d="M0 0l600 1405h141l625 -1405h-205l-186 414h-594l-176 -414h-205zM459 592h434l-225 506zM490 1706v0c26 0 49 -9 68 -28s28 -41 28 -68v0c0 -27 -9 -49 -27 -67c-18 -19 -40 -28 -66 -28v0c-27 0 -49 10 -68 29s-28 41 -28 67v0c0 27 9 49 28 68c18 18 40 27 65 27z
M875 1706v0c26 0 49 -9 68 -28s28 -41 28 -68v0c0 -27 -9 -49 -27 -67c-18 -19 -40 -28 -66 -28v0c-27 0 -49 10 -68 29s-28 41 -28 67v0c0 27 9 49 28 68c18 18 40 27 65 27z" />
    <glyph glyph-name="Aring" unicode="&#xc5;" horiz-adv-x="1366" 
d="M0 0l600 1405h141l625 -1405h-205l-186 414h-594l-176 -414h-205zM459 592h434l-225 506zM685 1880v0c51 0 96 -18 133 -55s55 -81 55 -134v0c0 -53 -18 -98 -55 -135s-82 -56 -135 -56v0c-52 0 -96 19 -133 56s-56 81 -56 133v0c0 53 19 99 57 136c37 37 82 55 134 55z
M680 1799v0c-34 0 -61 -10 -81 -30c-21 -21 -31 -47 -31 -80v0c0 -32 11 -59 34 -81c22 -23 49 -34 81 -34v0c32 0 59 11 82 33s34 49 34 80v0c0 31 -11 58 -34 80c-23 21 -51 32 -85 32z" />
    <glyph glyph-name="AE" unicode="&#xc6;" horiz-adv-x="1835" 
d="M4 2l827 1395h912v-178h-574v-422h555v-179h-555v-438h596v-178h-796v616h-381l-365 -616h-219zM692 797h277v465z" />
    <glyph glyph-name="Ccedilla" unicode="&#xc7;" horiz-adv-x="1450" 
d="M850 -16h-4l-5 -17c36 -9 64 -25 85 -50c20 -25 30 -53 30 -84v0c0 -51 -20 -94 -61 -129c-41 -36 -106 -54 -195 -54v0c-25 0 -46 2 -65 5v0v113c34 -3 55 -4 64 -4v0c38 0 68 7 89 22v0c13 9 19 20 19 34v0c0 16 -7 29 -20 40c-14 11 -39 16 -76 16v0
c-7 0 -15 -1 -23 -3v0l42 118c-106 12 -198 41 -277 87v0c-109 63 -195 150 -258 260c-63 109 -95 228 -95 356v0c0 203 73 374 218 513s323 208 536 208v0c147 0 310 -38 489 -115v0v-215c-163 93 -323 140 -479 140v0c-160 0 -293 -50 -398 -151
c-106 -101 -159 -228 -159 -380v0c0 -153 52 -279 156 -378s237 -148 399 -148v0c169 0 335 52 496 156v0v-220c-147 -80 -316 -120 -508 -120v0z" />
    <glyph glyph-name="Egrave" unicode="&#xc8;" 
d="M154 2v1395h792v-178h-592v-426h572v-179h-572v-434h611v-178h-811zM293 1800h204l138 -300h-112z" />
    <glyph glyph-name="Eacute" unicode="&#xc9;" 
d="M154 2v1395h792v-178h-592v-426h572v-179h-572v-434h611v-178h-811zM533 1800h203l-226 -300h-112z" />
    <glyph glyph-name="Ecircumflex" unicode="&#xca;" 
d="M154 2v1395h792v-178h-592v-426h572v-179h-572v-434h611v-178h-811zM453 1809h190l193 -309h-112l-179 177l-171 -177h-108z" />
    <glyph glyph-name="Edieresis" unicode="&#xcb;" 
d="M154 2v1395h792v-178h-592v-426h572v-179h-572v-434h611v-178h-811zM318 1706v0c26 0 49 -9 68 -28s28 -41 28 -68v0c0 -27 -9 -49 -27 -67c-18 -19 -40 -28 -66 -28v0c-27 0 -49 10 -68 29s-28 41 -28 67v0c0 27 9 49 28 68c18 18 40 27 65 27zM703 1706v0
c26 0 49 -9 68 -28s28 -41 28 -68v0c0 -27 -9 -49 -27 -67c-18 -19 -40 -28 -66 -28v0c-27 0 -49 10 -68 29s-28 41 -28 67v0c0 27 9 49 28 68c18 18 40 27 65 27z" />
    <glyph glyph-name="Igrave" unicode="&#xcc;" horiz-adv-x="512" 
d="M156 0v1397h200v-1397h-200zM2 1800h204l138 -300h-112z" />
    <glyph glyph-name="Iacute" unicode="&#xcd;" horiz-adv-x="512" 
d="M156 0v1397h200v-1397h-200zM330 1800h203l-226 -300h-112z" />
    <glyph glyph-name="Icircumflex" unicode="&#xce;" horiz-adv-x="512" 
d="M156 0v1397h200v-1397h-200zM171 1809h190l193 -309h-112l-179 177l-171 -177h-108z" />
    <glyph glyph-name="Idieresis" unicode="&#xcf;" horiz-adv-x="512" 
d="M156 0v1397h200v-1397h-200zM70 1706v0c26 0 49 -9 68 -28s28 -41 28 -68v0c0 -27 -9 -49 -27 -67c-18 -19 -40 -28 -66 -28v0c-27 0 -49 10 -68 29s-28 41 -28 67v0c0 27 9 49 28 68c18 18 40 27 65 27zM455 1706v0c26 0 49 -9 68 -28s28 -41 28 -68v0
c0 -27 -9 -49 -27 -67c-18 -19 -40 -28 -66 -28v0c-27 0 -49 10 -68 29s-28 41 -28 67v0c0 27 9 49 28 68c18 18 40 27 65 27z" />
    <glyph glyph-name="Eth" unicode="&#xd0;" horiz-adv-x="1536" 
d="M598 2h-442v631h-162v131h162v633h471c190 0 340 -28 451 -85s199 -141 264 -252s98 -231 98 -362v0c0 -93 -18 -183 -54 -268s-87 -160 -154 -225v0c-68 -67 -147 -117 -237 -151v0c-53 -21 -101 -34 -145 -41s-128 -11 -252 -11v0zM752 764v-131h-396v-453h256
c100 0 178 7 233 21c55 13 102 31 139 52s70 46 101 77v0c99 100 148 226 148 379v0c0 150 -51 272 -152 367v0c-37 35 -80 64 -128 87c-49 23 -95 38 -138 45s-113 11 -209 11v0h-250v-455h396z" />
    <glyph glyph-name="Ntilde" unicode="&#xd1;" horiz-adv-x="1599" 
d="M1264 313v1084h190v-1397h-172l-934 1075v-1075h-188v1397h162zM1048 1777h78c-1 -81 -19 -144 -56 -189v0c-28 -35 -63 -53 -105 -53v0c-37 0 -86 13 -148 40s-109 40 -140 40v0c-17 0 -32 -7 -45 -20s-20 -33 -23 -60v0h-84c11 94 30 157 58 189c28 31 63 47 106 47v0
c39 0 102 -18 189 -53v0c45 -18 77 -27 96 -27v0c19 0 35 7 48 20s21 35 26 66v0z" />
    <glyph glyph-name="Ograve" unicode="&#xd2;" horiz-adv-x="1686" 
d="M840 1417v0c216 0 396 -68 540 -205c143 -137 215 -308 215 -514v0c0 -206 -72 -376 -217 -511s-328 -203 -549 -203v0c-211 0 -386 68 -526 203c-141 135 -211 304 -211 507v0c0 209 71 381 212 518s320 205 536 205zM848 1227v0c-160 0 -291 -50 -394 -150
s-155 -228 -155 -383v0c0 -151 52 -276 155 -376s233 -150 388 -150v0c156 0 286 51 391 153c104 102 156 229 156 381v0c0 148 -52 273 -156 374c-105 101 -233 151 -385 151zM604 1800h204l138 -300h-112z" />
    <glyph glyph-name="Oacute" unicode="&#xd3;" horiz-adv-x="1686" 
d="M840 1417v0c216 0 396 -68 540 -205c143 -137 215 -308 215 -514v0c0 -206 -72 -376 -217 -511s-328 -203 -549 -203v0c-211 0 -386 68 -526 203c-141 135 -211 304 -211 507v0c0 209 71 381 212 518s320 205 536 205zM848 1227v0c-160 0 -291 -50 -394 -150
s-155 -228 -155 -383v0c0 -151 52 -276 155 -376s233 -150 388 -150v0c156 0 286 51 391 153c104 102 156 229 156 381v0c0 148 -52 273 -156 374c-105 101 -233 151 -385 151zM840 1800h203l-226 -300h-112z" />
    <glyph glyph-name="Ocircumflex" unicode="&#xd4;" horiz-adv-x="1686" 
d="M840 1417v0c216 0 396 -68 540 -205c143 -137 215 -308 215 -514v0c0 -206 -72 -376 -217 -511s-328 -203 -549 -203v0c-211 0 -386 68 -526 203c-141 135 -211 304 -211 507v0c0 209 71 381 212 518s320 205 536 205zM848 1227v0c-160 0 -291 -50 -394 -150
s-155 -228 -155 -383v0c0 -151 52 -276 155 -376s233 -150 388 -150v0c156 0 286 51 391 153c104 102 156 229 156 381v0c0 148 -52 273 -156 374c-105 101 -233 151 -385 151zM712 1809h190l193 -309h-112l-179 177l-171 -177h-108z" />
    <glyph glyph-name="Otilde" unicode="&#xd5;" horiz-adv-x="1686" 
d="M840 1417v0c216 0 396 -68 540 -205c143 -137 215 -308 215 -514v0c0 -206 -72 -376 -217 -511s-328 -203 -549 -203v0c-211 0 -386 68 -526 203c-141 135 -211 304 -211 507v0c0 209 71 381 212 518s320 205 536 205zM848 1227v0c-160 0 -291 -50 -394 -150
s-155 -228 -155 -383v0c0 -151 52 -276 155 -376s233 -150 388 -150v0c156 0 286 51 391 153c104 102 156 229 156 381v0c0 148 -52 273 -156 374c-105 101 -233 151 -385 151zM1070 1777h78c-1 -81 -19 -144 -56 -189v0c-28 -35 -63 -53 -105 -53v0c-37 0 -86 13 -148 40
s-109 40 -140 40v0c-17 0 -32 -7 -45 -20s-20 -33 -23 -60v0h-84c11 94 30 157 58 189c28 31 63 47 106 47v0c39 0 102 -18 189 -53v0c45 -18 77 -27 96 -27v0c19 0 35 7 48 20s21 35 26 66v0z" />
    <glyph glyph-name="Odieresis" unicode="&#xd6;" horiz-adv-x="1686" 
d="M840 1417v0c216 0 396 -68 540 -205c143 -137 215 -308 215 -514v0c0 -206 -72 -376 -217 -511s-328 -203 -549 -203v0c-211 0 -386 68 -526 203c-141 135 -211 304 -211 507v0c0 209 71 381 212 518s320 205 536 205zM848 1227v0c-160 0 -291 -50 -394 -150
s-155 -228 -155 -383v0c0 -151 52 -276 155 -376s233 -150 388 -150v0c156 0 286 51 391 153c104 102 156 229 156 381v0c0 148 -52 273 -156 374c-105 101 -233 151 -385 151zM637 1706v0c26 0 49 -9 68 -28s28 -41 28 -68v0c0 -27 -9 -49 -27 -67c-18 -19 -40 -28 -66 -28
v0c-27 0 -49 10 -68 29s-28 41 -28 67v0c0 27 9 49 28 68c18 18 40 27 65 27zM1022 1706v0c26 0 49 -9 68 -28s28 -41 28 -68v0c0 -27 -9 -49 -27 -67c-18 -19 -40 -28 -66 -28v0c-27 0 -49 10 -68 29s-28 41 -28 67v0c0 27 9 49 28 68c18 18 40 27 65 27z" />
    <glyph glyph-name="multiply" unicode="&#xd7;" horiz-adv-x="1196" 
d="M283 289l-122 121l315 315l-315 313l122 122l314 -314l314 314l121 -122l-313 -313l313 -315l-121 -121l-314 314z" />
    <glyph glyph-name="Oslash" unicode="&#xd8;" horiz-adv-x="1686" 
d="M1276 1298l98 121l94 -82l-94 -114c69 -63 123 -141 162 -232c38 -91 57 -188 57 -289v0c0 -206 -71 -377 -213 -512c-143 -136 -322 -204 -538 -204v0c-175 0 -319 38 -432 114v0l-101 -118l-96 77l96 119c-68 62 -121 138 -158 229c-38 90 -57 185 -57 285v0
c0 209 71 382 213 519c141 136 320 204 537 204v0c152 0 296 -39 432 -117v0zM1239 1071v0l-700 -819c96 -55 197 -82 303 -82v0c157 0 287 51 390 152s154 228 154 383v0c0 69 -13 135 -39 200s-62 120 -108 166zM442 328v0l703 821c-94 55 -194 82 -299 82v0
c-157 0 -287 -50 -390 -151s-155 -227 -155 -380v0c0 -141 47 -265 141 -372z" />
    <glyph glyph-name="Ugrave" unicode="&#xd9;" horiz-adv-x="1450" 
d="M1126 604v793h201v-793c0 -107 -8 -188 -23 -243c-16 -55 -35 -100 -58 -136c-23 -37 -52 -69 -85 -98v0c-111 -95 -255 -143 -434 -143v0c-182 0 -328 47 -438 142v0c-33 29 -61 62 -84 99c-23 36 -42 80 -57 133s-23 135 -23 248v0v791h201v-793
c0 -131 15 -223 45 -274s76 -92 137 -123s134 -47 217 -47v0c119 0 215 31 290 93v0c39 33 68 73 85 118s26 123 26 233v0zM463 1800h204l138 -300h-112z" />
    <glyph glyph-name="Uacute" unicode="&#xda;" horiz-adv-x="1450" 
d="M1126 604v793h201v-793c0 -107 -8 -188 -23 -243c-16 -55 -35 -100 -58 -136c-23 -37 -52 -69 -85 -98v0c-111 -95 -255 -143 -434 -143v0c-182 0 -328 47 -438 142v0c-33 29 -61 62 -84 99c-23 36 -42 80 -57 133s-23 135 -23 248v0v791h201v-793
c0 -131 15 -223 45 -274s76 -92 137 -123s134 -47 217 -47v0c119 0 215 31 290 93v0c39 33 68 73 85 118s26 123 26 233v0zM759 1800h203l-226 -300h-112z" />
    <glyph glyph-name="Ucircumflex" unicode="&#xdb;" horiz-adv-x="1450" 
d="M1126 604v793h201v-793c0 -107 -8 -188 -23 -243c-16 -55 -35 -100 -58 -136c-23 -37 -52 -69 -85 -98v0c-111 -95 -255 -143 -434 -143v0c-182 0 -328 47 -438 142v0c-33 29 -61 62 -84 99c-23 36 -42 80 -57 133s-23 135 -23 248v0v791h201v-793
c0 -131 15 -223 45 -274s76 -92 137 -123s134 -47 217 -47v0c119 0 215 31 290 93v0c39 33 68 73 85 118s26 123 26 233v0zM619 1809h190l193 -309h-112l-179 177l-171 -177h-108z" />
    <glyph glyph-name="Udieresis" unicode="&#xdc;" horiz-adv-x="1450" 
d="M1126 604v793h201v-793c0 -107 -8 -188 -23 -243c-16 -55 -35 -100 -58 -136c-23 -37 -52 -69 -85 -98v0c-111 -95 -255 -143 -434 -143v0c-182 0 -328 47 -438 142v0c-33 29 -61 62 -84 99c-23 36 -42 80 -57 133s-23 135 -23 248v0v791h201v-793
c0 -131 15 -223 45 -274s76 -92 137 -123s134 -47 217 -47v0c119 0 215 31 290 93v0c39 33 68 73 85 118s26 123 26 233v0zM533 1706v0c26 0 49 -9 68 -28s28 -41 28 -68v0c0 -27 -9 -49 -27 -67c-18 -19 -40 -28 -66 -28v0c-27 0 -49 10 -68 29s-28 41 -28 67v0
c0 27 9 49 28 68c18 18 40 27 65 27zM918 1706v0c26 0 49 -9 68 -28s28 -41 28 -68v0c0 -27 -9 -49 -27 -67c-18 -19 -40 -28 -66 -28v0c-27 0 -49 10 -68 29s-28 41 -28 67v0c0 27 9 49 28 68c18 18 40 27 65 27z" />
    <glyph glyph-name="Yacute" unicode="&#xdd;" horiz-adv-x="1237" 
d="M616 915l379 482h242l-516 -658v-739h-205v739l-516 658h242zM639 1800h203l-226 -300h-112z" />
    <glyph glyph-name="Thorn" unicode="&#xde;" horiz-adv-x="1044" 
d="M344 0h-201v1397h201v-301h242c134 0 241 -36 320 -108c79 -73 118 -170 118 -292v0c0 -116 -40 -211 -120 -284v0c-44 -40 -97 -68 -159 -84c-62 -17 -146 -25 -253 -25v0h-148v-303zM551 917v0h-207v-436h219c81 0 144 19 188 58c44 38 66 92 66 163v0
c0 143 -89 215 -266 215z" />
    <glyph glyph-name="germandbls" unicode="&#xdf;" 
d="M473 680v166h27c69 0 122 19 160 56s57 90 57 157v0c0 63 -20 114 -59 155c-40 40 -91 60 -152 60v0c-71 0 -122 -22 -154 -65c-33 -43 -49 -113 -49 -208v0v-1001h-182v999c0 83 13 157 40 223c27 65 70 114 129 146c59 31 132 47 220 47v0c120 0 215 -30 284 -89
c69 -60 103 -142 103 -245v0c0 -71 -18 -134 -53 -189s-85 -95 -148 -122v0c83 -21 147 -64 192 -128c45 -65 68 -145 68 -241v0c0 -123 -33 -222 -100 -299s-153 -116 -258 -116v0c-51 0 -98 5 -141 14v0v178c33 -15 67 -22 100 -22v0c65 0 118 23 157 70s58 109 58 188v0
c0 53 -10 99 -29 138c-20 39 -49 69 -87 92c-39 22 -100 34 -183 36v0z" />
    <glyph glyph-name="agrave" unicode="&#xe0;" horiz-adv-x="874" 
d="M707 553v0v-391c0 -31 11 -47 32 -47v0c22 0 56 16 103 49v0v-111c-41 -27 -74 -45 -99 -54c-25 -10 -52 -15 -79 -15v0c-78 0 -124 31 -138 92v0c-77 -60 -160 -90 -247 -90v0c-64 0 -117 21 -160 64c-43 42 -64 95 -64 159v0c0 58 21 110 63 156c41 45 100 81 177 108
v0l233 80v49c0 111 -55 166 -166 166v0c-99 0 -196 -51 -290 -154v0v199c71 83 172 125 305 125v0c99 0 179 -26 239 -78v0c20 -17 38 -39 54 -66c16 -28 26 -56 31 -83c4 -28 6 -81 6 -158zM528 182v0v273l-122 -47c-62 -25 -106 -49 -131 -74c-26 -25 -39 -57 -39 -94v0
c0 -38 12 -69 37 -93c24 -24 55 -36 94 -36v0c58 0 112 24 161 71zM219 1420h204l138 -300h-112z" />
    <glyph glyph-name="aacute" unicode="&#xe1;" horiz-adv-x="874" 
d="M707 553v0v-391c0 -31 11 -47 32 -47v0c22 0 56 16 103 49v0v-111c-41 -27 -74 -45 -99 -54c-25 -10 -52 -15 -79 -15v0c-78 0 -124 31 -138 92v0c-77 -60 -160 -90 -247 -90v0c-64 0 -117 21 -160 64c-43 42 -64 95 -64 159v0c0 58 21 110 63 156c41 45 100 81 177 108
v0l233 80v49c0 111 -55 166 -166 166v0c-99 0 -196 -51 -290 -154v0v199c71 83 172 125 305 125v0c99 0 179 -26 239 -78v0c20 -17 38 -39 54 -66c16 -28 26 -56 31 -83c4 -28 6 -81 6 -158zM528 182v0v273l-122 -47c-62 -25 -106 -49 -131 -74c-26 -25 -39 -57 -39 -94v0
c0 -38 12 -69 37 -93c24 -24 55 -36 94 -36v0c58 0 112 24 161 71zM459 1419h203l-226 -300h-112z" />
    <glyph glyph-name="acircumflex" unicode="&#xe2;" horiz-adv-x="874" 
d="M707 553v0v-391c0 -31 11 -47 32 -47v0c22 0 56 16 103 49v0v-111c-41 -27 -74 -45 -99 -54c-25 -10 -52 -15 -79 -15v0c-78 0 -124 31 -138 92v0c-77 -60 -160 -90 -247 -90v0c-64 0 -117 21 -160 64c-43 42 -64 95 -64 159v0c0 58 21 110 63 156c41 45 100 81 177 108
v0l233 80v49c0 111 -55 166 -166 166v0c-99 0 -196 -51 -290 -154v0v199c71 83 172 125 305 125v0c99 0 179 -26 239 -78v0c20 -17 38 -39 54 -66c16 -28 26 -56 31 -83c4 -28 6 -81 6 -158zM528 182v0v273l-122 -47c-62 -25 -106 -49 -131 -74c-26 -25 -39 -57 -39 -94v0
c0 -38 12 -69 37 -93c24 -24 55 -36 94 -36v0c58 0 112 24 161 71zM339 1427h190l193 -309h-112l-179 177l-171 -177h-108z" />
    <glyph glyph-name="atilde" unicode="&#xe3;" horiz-adv-x="874" 
d="M707 553v0v-391c0 -31 11 -47 32 -47v0c22 0 56 16 103 49v0v-111c-41 -27 -74 -45 -99 -54c-25 -10 -52 -15 -79 -15v0c-78 0 -124 31 -138 92v0c-77 -60 -160 -90 -247 -90v0c-64 0 -117 21 -160 64c-43 42 -64 95 -64 159v0c0 58 21 110 63 156c41 45 100 81 177 108
v0l233 80v49c0 111 -55 166 -166 166v0c-99 0 -196 -51 -290 -154v0v199c71 83 172 125 305 125v0c99 0 179 -26 239 -78v0c20 -17 38 -39 54 -66c16 -28 26 -56 31 -83c4 -28 6 -81 6 -158zM528 182v0v273l-122 -47c-62 -25 -106 -49 -131 -74c-26 -25 -39 -57 -39 -94v0
c0 -38 12 -69 37 -93c24 -24 55 -36 94 -36v0c58 0 112 24 161 71zM660 1397h78c-1 -81 -19 -144 -56 -189v0c-28 -35 -63 -53 -105 -53v0c-37 0 -86 13 -148 40s-109 40 -140 40v0c-17 0 -32 -7 -45 -20s-20 -33 -23 -60v0h-84c11 94 30 157 58 189c28 31 63 47 106 47v0
c39 0 102 -18 189 -53v0c45 -18 77 -27 96 -27v0c19 0 35 7 48 20s21 35 26 66v0z" />
    <glyph glyph-name="adieresis" unicode="&#xe4;" horiz-adv-x="874" 
d="M707 553v0v-391c0 -31 11 -47 32 -47v0c22 0 56 16 103 49v0v-111c-41 -27 -74 -45 -99 -54c-25 -10 -52 -15 -79 -15v0c-78 0 -124 31 -138 92v0c-77 -60 -160 -90 -247 -90v0c-64 0 -117 21 -160 64c-43 42 -64 95 -64 159v0c0 58 21 110 63 156c41 45 100 81 177 108
v0l233 80v49c0 111 -55 166 -166 166v0c-99 0 -196 -51 -290 -154v0v199c71 83 172 125 305 125v0c99 0 179 -26 239 -78v0c20 -17 38 -39 54 -66c16 -28 26 -56 31 -83c4 -28 6 -81 6 -158zM528 182v0v273l-122 -47c-62 -25 -106 -49 -131 -74c-26 -25 -39 -57 -39 -94v0
c0 -38 12 -69 37 -93c24 -24 55 -36 94 -36v0c58 0 112 24 161 71zM244 1366v0c26 0 49 -9 68 -28s28 -41 28 -68v0c0 -27 -9 -49 -27 -67c-18 -19 -40 -28 -66 -28v0c-27 0 -49 10 -68 29s-28 41 -28 67v0c0 27 9 49 28 68c18 18 40 27 65 27zM629 1366v0
c26 0 49 -9 68 -28s28 -41 28 -68v0c0 -27 -9 -49 -27 -67c-18 -19 -40 -28 -66 -28v0c-27 0 -49 10 -68 29s-28 41 -28 67v0c0 27 9 49 28 68c18 18 40 27 65 27z" />
    <glyph glyph-name="aring" unicode="&#xe5;" horiz-adv-x="874" 
d="M707 553v0v-391c0 -31 11 -47 32 -47v0c22 0 56 16 103 49v0v-111c-41 -27 -74 -45 -99 -54c-25 -10 -52 -15 -79 -15v0c-78 0 -124 31 -138 92v0c-77 -60 -160 -90 -247 -90v0c-64 0 -117 21 -160 64c-43 42 -64 95 -64 159v0c0 58 21 110 63 156c41 45 100 81 177 108
v0l233 80v49c0 111 -55 166 -166 166v0c-99 0 -196 -51 -290 -154v0v199c71 83 172 125 305 125v0c99 0 179 -26 239 -78v0c20 -17 38 -39 54 -66c16 -28 26 -56 31 -83c4 -28 6 -81 6 -158zM528 182v0v273l-122 -47c-62 -25 -106 -49 -131 -74c-26 -25 -39 -57 -39 -94v0
c0 -38 12 -69 37 -93c24 -24 55 -36 94 -36v0c58 0 112 24 161 71zM439 1497v0c51 0 96 -18 133 -55s55 -81 55 -134v0c0 -53 -18 -98 -55 -135s-82 -56 -135 -56v0c-52 0 -96 19 -133 56s-56 81 -56 133v0c0 53 19 99 57 136c37 37 82 55 134 55zM434 1416v0
c-34 0 -61 -10 -81 -30c-21 -21 -31 -47 -31 -80v0c0 -32 11 -59 34 -81c22 -23 49 -34 81 -34v0c32 0 59 11 82 33s34 49 34 80v0c0 31 -11 58 -34 80c-23 21 -51 32 -85 32z" />
    <glyph glyph-name="ae" unicode="&#xe6;" horiz-adv-x="1366" 
d="M936 938v0c105 0 190 -37 254 -112s96 -175 96 -298v0v-28h-567c3 -90 18 -159 44 -207c25 -49 59 -85 100 -109c41 -25 89 -37 143 -37v0c87 0 181 37 280 111v0v-178c-55 -37 -105 -62 -149 -75c-45 -14 -99 -21 -164 -21v0c-63 0 -124 13 -181 40
c-58 26 -101 60 -128 101v0c-119 -94 -234 -141 -345 -141v0c-73 0 -133 22 -178 65c-46 43 -69 99 -69 168v0c0 51 16 97 47 138s80 75 145 104c65 28 113 46 146 53v0l127 39v29c0 69 -11 117 -34 146c-23 28 -63 42 -118 42v0c-105 0 -202 -51 -293 -152v0v220
c51 37 99 64 144 79s95 23 151 23v0c121 0 213 -40 277 -119v0c51 43 97 74 138 92s85 27 134 27zM741 616v0h363c-7 52 -26 92 -56 121c-31 29 -70 43 -118 43v0c-91 0 -154 -55 -189 -164zM537 162v0v297l-99 -39c-67 -26 -114 -52 -143 -78s-43 -56 -43 -90v0
c0 -40 13 -74 39 -101c25 -28 56 -42 92 -42v0c25 0 47 4 66 11s49 21 88 42z" />
    <glyph glyph-name="ccedilla" unicode="&#xe7;" horiz-adv-x="897" 
d="M551 -16h-13l-5 -17c36 -9 64 -25 85 -50c20 -25 30 -53 30 -84v0c0 -51 -20 -94 -61 -129c-41 -36 -106 -54 -195 -54v0c-25 0 -46 2 -65 5v0v113c34 -3 55 -4 64 -4v0c38 0 68 7 89 22v0c13 9 19 20 19 34v0c0 16 -7 29 -20 40c-14 11 -39 16 -76 16v0
c-7 0 -15 -1 -23 -3v0l44 123c-87 19 -166 65 -238 137c-72 71 -108 179 -108 322v0c0 145 42 261 125 350s193 133 329 133v0c47 0 90 -4 128 -13c37 -9 84 -26 139 -51v0v-194c-92 59 -177 88 -256 88v0c-82 0 -149 -29 -202 -86c-53 -58 -79 -132 -79 -221v0
c0 -94 29 -169 86 -224s133 -83 230 -83v0c70 0 150 20 241 61v0v-180c-91 -34 -181 -51 -268 -51v0z" />
    <glyph glyph-name="egrave" unicode="&#xe8;" horiz-adv-x="981" 
d="M913 467v-23h-647c5 -88 34 -158 89 -210c54 -52 124 -78 210 -78v0c120 0 231 37 332 112v0v-178c-56 -37 -111 -64 -166 -80s-120 -24 -194 -24v0c-101 0 -183 21 -246 63s-113 99 -150 170c-38 71 -57 153 -57 246v0c0 140 40 254 119 342c79 87 182 131 309 131v0
c122 0 219 -43 292 -128s109 -200 109 -343v0zM270 553v0h463c-5 73 -26 129 -65 168s-91 59 -156 59v0c-65 0 -119 -20 -160 -59c-42 -39 -69 -95 -82 -168zM273 1419h204l138 -300h-112z" />
    <glyph glyph-name="eacute" unicode="&#xe9;" horiz-adv-x="981" 
d="M913 467v-23h-647c5 -88 34 -158 89 -210c54 -52 124 -78 210 -78v0c120 0 231 37 332 112v0v-178c-56 -37 -111 -64 -166 -80s-120 -24 -194 -24v0c-101 0 -183 21 -246 63s-113 99 -150 170c-38 71 -57 153 -57 246v0c0 140 40 254 119 342c79 87 182 131 309 131v0
c122 0 219 -43 292 -128s109 -200 109 -343v0zM270 553v0h463c-5 73 -26 129 -65 168s-91 59 -156 59v0c-65 0 -119 -20 -160 -59c-42 -39 -69 -95 -82 -168zM513 1419h203l-226 -300h-112z" />
    <glyph glyph-name="ecircumflex" unicode="&#xea;" horiz-adv-x="981" 
d="M913 467v-23h-647c5 -88 34 -158 89 -210c54 -52 124 -78 210 -78v0c120 0 231 37 332 112v0v-178c-56 -37 -111 -64 -166 -80s-120 -24 -194 -24v0c-101 0 -183 21 -246 63s-113 99 -150 170c-38 71 -57 153 -57 246v0c0 140 40 254 119 342c79 87 182 131 309 131v0
c122 0 219 -43 292 -128s109 -200 109 -343v0zM270 553v0h463c-5 73 -26 129 -65 168s-91 59 -156 59v0c-65 0 -119 -20 -160 -59c-42 -39 -69 -95 -82 -168zM392 1427h190l193 -309h-112l-179 177l-171 -177h-108z" />
    <glyph glyph-name="edieresis" unicode="&#xeb;" horiz-adv-x="981" 
d="M913 467v-23h-647c5 -88 34 -158 89 -210c54 -52 124 -78 210 -78v0c120 0 231 37 332 112v0v-178c-56 -37 -111 -64 -166 -80s-120 -24 -194 -24v0c-101 0 -183 21 -246 63s-113 99 -150 170c-38 71 -57 153 -57 246v0c0 140 40 254 119 342c79 87 182 131 309 131v0
c122 0 219 -43 292 -128s109 -200 109 -343v0zM270 553v0h463c-5 73 -26 129 -65 168s-91 59 -156 59v0c-65 0 -119 -20 -160 -59c-42 -39 -69 -95 -82 -168zM297 1366v0c26 0 49 -9 68 -28s28 -41 28 -68v0c0 -27 -9 -49 -27 -67c-18 -19 -40 -28 -66 -28v0
c-27 0 -49 10 -68 29s-28 41 -28 67v0c0 27 9 49 28 68c18 18 40 27 65 27zM682 1366v0c26 0 49 -9 68 -28s28 -41 28 -68v0c0 -27 -9 -49 -27 -67c-18 -19 -40 -28 -66 -28v0c-27 0 -49 10 -68 29s-28 41 -28 67v0c0 27 9 49 28 68c18 18 40 27 65 27z" />
    <glyph glyph-name="igrave" unicode="&#xec;" horiz-adv-x="449" 
d="M133 0v920h182v-920h-182zM-37 1419h204l138 -300h-112z" />
    <glyph glyph-name="iacute" unicode="&#xed;" horiz-adv-x="449" 
d="M133 0v920h182v-920h-182zM319 1419h203l-226 -300h-112z" />
    <glyph glyph-name="icircumflex" unicode="&#xee;" horiz-adv-x="449" 
d="M133 0v920h182v-920h-182zM142 1427h190l193 -309h-112l-179 177l-171 -177h-108z" />
    <glyph glyph-name="idieresis" unicode="&#xef;" horiz-adv-x="449" 
d="M133 0v920h182v-920h-182zM31 1366v0c26 0 49 -9 68 -28s28 -41 28 -68v0c0 -27 -9 -49 -27 -67c-18 -19 -40 -28 -66 -28v0c-27 0 -49 10 -68 29s-28 41 -28 67v0c0 27 9 49 28 68c18 18 40 27 65 27zM416 1366v0c26 0 49 -9 68 -28s28 -41 28 -68v0
c0 -27 -9 -49 -27 -67c-18 -19 -40 -28 -66 -28v0c-27 0 -49 10 -68 29s-28 41 -28 67v0c0 27 9 49 28 68c18 18 40 27 65 27z" />
    <glyph glyph-name="eth" unicode="&#xf0;" horiz-adv-x="1153" 
d="M270 1286v0l97 127c60 -19 104 -34 133 -45c28 -12 67 -32 118 -59v0l224 104l49 -110l-154 -76c77 -65 132 -123 167 -172s64 -101 89 -155v0c56 -119 84 -245 84 -376v0c0 -167 -45 -299 -136 -395c-91 -97 -215 -145 -372 -145v0c-138 0 -254 45 -347 135
c-93 89 -140 201 -140 334v0c0 139 48 255 143 347s215 138 359 138v0c43 0 78 -3 106 -9c27 -6 63 -19 107 -38v0c-41 69 -74 117 -99 146c-25 28 -68 65 -129 112v0l-295 -137l-47 112l215 101c-57 28 -114 48 -172 61zM897 463v0c0 92 -29 167 -88 225
c-59 57 -135 86 -229 86v0c-91 0 -167 -31 -229 -93s-93 -138 -93 -228v0c0 -89 31 -162 92 -219c61 -58 139 -87 232 -87v0c95 0 172 29 229 87c57 57 86 134 86 229z" />
    <glyph glyph-name="ntilde" unicode="&#xf1;" 
d="M125 920h186v-117c81 90 174 135 277 135v0c57 0 111 -15 160 -44c49 -30 87 -71 113 -122c25 -52 38 -134 38 -246v0v-526h-182v524c0 94 -14 161 -43 202c-29 40 -77 60 -144 60v0c-86 0 -159 -43 -219 -129v0v-657h-186v920zM734 1397h78c-1 -81 -19 -144 -56 -189v0
c-28 -35 -63 -53 -105 -53v0c-37 0 -86 13 -148 40s-109 40 -140 40v0c-17 0 -32 -7 -45 -20s-20 -33 -23 -60v0h-84c11 94 30 157 58 189c28 31 63 47 106 47v0c39 0 102 -18 189 -53v0c45 -18 77 -27 96 -27v0c19 0 35 7 48 20s21 35 26 66v0z" />
    <glyph glyph-name="ograve" unicode="&#xf2;" horiz-adv-x="1130" 
d="M569 922v0c140 0 256 -45 349 -135c93 -91 139 -204 139 -341v0c0 -133 -47 -243 -141 -330c-94 -88 -212 -132 -355 -132v0c-138 0 -253 45 -346 134s-139 200 -139 333v0c0 135 47 247 141 337c93 89 211 134 352 134zM559 758v0c-87 0 -159 -29 -215 -86
s-84 -130 -84 -219v0c0 -88 29 -160 86 -215c57 -56 131 -84 221 -84v0c89 0 163 28 220 85c57 56 85 128 85 216v0c0 87 -30 160 -89 217s-134 86 -224 86zM285 1419h204l138 -300h-112z" />
    <glyph glyph-name="oacute" unicode="&#xf3;" horiz-adv-x="1130" 
d="M569 922v0c140 0 256 -45 349 -135c93 -91 139 -204 139 -341v0c0 -133 -47 -243 -141 -330c-94 -88 -212 -132 -355 -132v0c-138 0 -253 45 -346 134s-139 200 -139 333v0c0 135 47 247 141 337c93 89 211 134 352 134zM559 758v0c-87 0 -159 -29 -215 -86
s-84 -130 -84 -219v0c0 -88 29 -160 86 -215c57 -56 131 -84 221 -84v0c89 0 163 28 220 85c57 56 85 128 85 216v0c0 87 -30 160 -89 217s-134 86 -224 86zM568 1419h203l-226 -300h-112z" />
    <glyph glyph-name="ocircumflex" unicode="&#xf4;" horiz-adv-x="1130" 
d="M569 922v0c140 0 256 -45 349 -135c93 -91 139 -204 139 -341v0c0 -133 -47 -243 -141 -330c-94 -88 -212 -132 -355 -132v0c-138 0 -253 45 -346 134s-139 200 -139 333v0c0 135 47 247 141 337c93 89 211 134 352 134zM559 758v0c-87 0 -159 -29 -215 -86
s-84 -130 -84 -219v0c0 -88 29 -160 86 -215c57 -56 131 -84 221 -84v0c89 0 163 28 220 85c57 56 85 128 85 216v0c0 87 -30 160 -89 217s-134 86 -224 86zM451 1427h190l193 -309h-112l-179 177l-171 -177h-108z" />
    <glyph glyph-name="otilde" unicode="&#xf5;" horiz-adv-x="1130" 
d="M569 922v0c140 0 256 -45 349 -135c93 -91 139 -204 139 -341v0c0 -133 -47 -243 -141 -330c-94 -88 -212 -132 -355 -132v0c-138 0 -253 45 -346 134s-139 200 -139 333v0c0 135 47 247 141 337c93 89 211 134 352 134zM559 758v0c-87 0 -159 -29 -215 -86
s-84 -130 -84 -219v0c0 -88 29 -160 86 -215c57 -56 131 -84 221 -84v0c89 0 163 28 220 85c57 56 85 128 85 216v0c0 87 -30 160 -89 217s-134 86 -224 86zM810 1397h78c-1 -81 -19 -144 -56 -189v0c-28 -35 -63 -53 -105 -53v0c-37 0 -86 13 -148 40s-109 40 -140 40v0
c-17 0 -32 -7 -45 -20s-20 -33 -23 -60v0h-84c11 94 30 157 58 189c28 31 63 47 106 47v0c39 0 102 -18 189 -53v0c45 -18 77 -27 96 -27v0c19 0 35 7 48 20s21 35 26 66v0z" />
    <glyph glyph-name="odieresis" unicode="&#xf6;" horiz-adv-x="1130" 
d="M569 922v0c140 0 256 -45 349 -135c93 -91 139 -204 139 -341v0c0 -133 -47 -243 -141 -330c-94 -88 -212 -132 -355 -132v0c-138 0 -253 45 -346 134s-139 200 -139 333v0c0 135 47 247 141 337c93 89 211 134 352 134zM559 758v0c-87 0 -159 -29 -215 -86
s-84 -130 -84 -219v0c0 -88 29 -160 86 -215c57 -56 131 -84 221 -84v0c89 0 163 28 220 85c57 56 85 128 85 216v0c0 87 -30 160 -89 217s-134 86 -224 86zM344 1366v0c26 0 49 -9 68 -28s28 -41 28 -68v0c0 -27 -9 -49 -27 -67c-18 -19 -40 -28 -66 -28v0
c-27 0 -49 10 -68 29s-28 41 -28 67v0c0 27 9 49 28 68c18 18 40 27 65 27zM729 1366v0c26 0 49 -9 68 -28s28 -41 28 -68v0c0 -27 -9 -49 -27 -67c-18 -19 -40 -28 -66 -28v0c-27 0 -49 10 -68 29s-28 41 -28 67v0c0 27 9 49 28 68c18 18 40 27 65 27z" />
    <glyph glyph-name="divide" unicode="&#xf7;" horiz-adv-x="1196" 
d="M604 1131v0c30 0 56 -10 77 -31s31 -47 31 -77v0c0 -30 -10 -56 -31 -77s-47 -32 -77 -32v0c-30 0 -56 11 -77 32s-32 47 -32 77v0c0 30 11 56 32 77s46 31 77 31zM1082 807v-168h-968v168h968zM605 529v0c30 0 56 -11 77 -32s31 -47 31 -77v0c0 -30 -10 -56 -31 -77
s-47 -32 -77 -32v0c-30 0 -56 11 -77 32s-32 47 -32 77v0c0 30 11 56 32 77s46 32 77 32z" />
    <glyph glyph-name="oslash" unicode="&#xf8;" horiz-adv-x="1130" 
d="M848 856v0l94 113l68 -62l-90 -106c93 -103 139 -219 139 -346v0c0 -137 -47 -250 -142 -338c-95 -89 -217 -133 -364 -133v0c-97 0 -187 24 -270 73v0l-115 -131l-68 62l111 127c-93 95 -139 209 -139 344v0c0 137 47 251 141 342c93 91 211 137 352 137v0
c103 0 197 -27 283 -82zM805 670v0l-410 -480c48 -33 104 -49 168 -49v0c90 0 166 31 228 92c61 61 92 135 92 224v0c0 43 -6 79 -17 110s-32 65 -61 103zM326 248v0l407 477c-55 33 -111 49 -168 49v0c-90 0 -165 -31 -226 -92s-91 -138 -91 -229v0c0 -78 26 -146 78 -205z
" />
    <glyph glyph-name="ugrave" unicode="&#xf9;" 
d="M897 0h-182v117c-39 -42 -83 -75 -132 -98c-50 -23 -100 -35 -149 -35v0c-58 0 -111 15 -160 44s-86 68 -111 118c-25 49 -38 132 -38 247v0v527h182v-525c0 -97 14 -164 42 -202c27 -39 76 -58 145 -58v0c87 0 160 42 221 127v0v658h182v-920zM293 1419h204l138 -300
h-112z" />
    <glyph glyph-name="uacute" unicode="&#xfa;" 
d="M897 0h-182v117c-39 -42 -83 -75 -132 -98c-50 -23 -100 -35 -149 -35v0c-58 0 -111 15 -160 44s-86 68 -111 118c-25 49 -38 132 -38 247v0v527h182v-525c0 -97 14 -164 42 -202c27 -39 76 -58 145 -58v0c87 0 160 42 221 127v0v658h182v-920zM533 1419h203l-226 -300
h-112z" />
    <glyph glyph-name="ucircumflex" unicode="&#xfb;" 
d="M897 0h-182v117c-39 -42 -83 -75 -132 -98c-50 -23 -100 -35 -149 -35v0c-58 0 -111 15 -160 44s-86 68 -111 118c-25 49 -38 132 -38 247v0v527h182v-525c0 -97 14 -164 42 -202c27 -39 76 -58 145 -58v0c87 0 160 42 221 127v0v658h182v-920zM413 1427h190l193 -309
h-112l-179 177l-171 -177h-108z" />
    <glyph glyph-name="udieresis" unicode="&#xfc;" 
d="M897 0h-182v117c-39 -42 -83 -75 -132 -98c-50 -23 -100 -35 -149 -35v0c-58 0 -111 15 -160 44s-86 68 -111 118c-25 49 -38 132 -38 247v0v527h182v-525c0 -97 14 -164 42 -202c27 -39 76 -58 145 -58v0c87 0 160 42 221 127v0v658h182v-920zM318 1366v0
c26 0 49 -9 68 -28s28 -41 28 -68v0c0 -27 -9 -49 -27 -67c-18 -19 -40 -28 -66 -28v0c-27 0 -49 10 -68 29s-28 41 -28 67v0c0 27 9 49 28 68c18 18 40 27 65 27zM703 1366v0c26 0 49 -9 68 -28s28 -41 28 -68v0c0 -27 -9 -49 -27 -67c-18 -19 -40 -28 -66 -28v0
c-27 0 -49 10 -68 29s-28 41 -28 67v0c0 27 9 49 28 68c18 18 40 27 65 27z" />
    <glyph glyph-name="yacute" unicode="&#xfd;" horiz-adv-x="897" 
d="M455 401l237 519h205l-651 -1389h-203l313 666l-356 723h207zM469 1419h203l-226 -300h-112z" />
    <glyph glyph-name="thorn" unicode="&#xfe;" 
d="M303 -469h-186v1866h186v-477h133c163 0 291 -41 382 -122s136 -195 136 -341v0c0 -138 -43 -251 -128 -340c-86 -89 -195 -133 -328 -133v0c-59 0 -124 13 -195 39v0v-492zM432 750v0h-129v-566c56 -29 115 -43 176 -43v0c85 0 155 30 210 89c54 59 81 136 81 229v0
c0 60 -13 113 -38 159c-26 46 -61 80 -105 101c-45 21 -110 31 -195 31z" />
    <glyph glyph-name="ydieresis" unicode="&#xff;" horiz-adv-x="897" 
d="M455 401l237 519h205l-651 -1389h-203l313 666l-356 723h207zM254 1366v0c26 0 49 -9 68 -28s28 -41 28 -68v0c0 -27 -9 -49 -27 -67c-18 -19 -40 -28 -66 -28v0c-27 0 -49 10 -68 29s-28 41 -28 67v0c0 27 9 49 28 68c18 18 40 27 65 27zM639 1366v0c26 0 49 -9 68 -28
s28 -41 28 -68v0c0 -27 -9 -49 -27 -67c-18 -19 -40 -28 -66 -28v0c-27 0 -49 10 -68 29s-28 41 -28 67v0c0 27 9 49 28 68c18 18 40 27 65 27z" />
    <glyph glyph-name="Abreve" unicode="&#x102;" horiz-adv-x="1366" 
d="M0 0l600 1405h141l625 -1405h-205l-186 414h-594l-176 -414h-205zM459 592h434l-225 506zM833 1764h139c-16 -88 -49 -154 -99 -198c-51 -44 -115 -66 -192 -66v0c-73 0 -136 23 -188 69c-52 45 -86 110 -101 195v0h137c11 -43 29 -75 55 -96s60 -31 102 -31v0
c39 0 70 10 95 30c24 19 41 52 52 97v0z" />
    <glyph glyph-name="abreve" unicode="&#x103;" horiz-adv-x="874" 
d="M707 553v0v-391c0 -31 11 -47 32 -47v0c22 0 56 16 103 49v0v-111c-41 -27 -74 -45 -99 -54c-25 -10 -52 -15 -79 -15v0c-78 0 -124 31 -138 92v0c-77 -60 -160 -90 -247 -90v0c-64 0 -117 21 -160 64c-43 42 -64 95 -64 159v0c0 58 21 110 63 156c41 45 100 81 177 108
v0l233 80v49c0 111 -55 166 -166 166v0c-99 0 -196 -51 -290 -154v0v199c71 83 172 125 305 125v0c99 0 179 -26 239 -78v0c20 -17 38 -39 54 -66c16 -28 26 -56 31 -83c4 -28 6 -81 6 -158zM528 182v0v273l-122 -47c-62 -25 -106 -49 -131 -74c-26 -25 -39 -57 -39 -94v0
c0 -38 12 -69 37 -93c24 -24 55 -36 94 -36v0c58 0 112 24 161 71zM534 1397h139c-16 -88 -49 -154 -99 -198c-51 -44 -115 -66 -192 -66v0c-73 0 -136 23 -188 69c-52 45 -86 110 -101 195v0h137c11 -43 29 -75 55 -96s60 -31 102 -31v0c39 0 70 10 95 30
c24 19 41 52 52 97v0z" />
    <glyph glyph-name="Aogonek" unicode="&#x104;" horiz-adv-x="1366" 
d="M1444 -197v0v-137c-49 -21 -99 -31 -150 -31v0c-60 0 -109 18 -148 55c-39 36 -59 82 -59 138v0c0 59 25 116 74 172v0l-186 412h-594l-176 -412h-205l600 1405h141l625 -1405h-66c-38 -52 -57 -94 -57 -125v0c0 -26 10 -48 31 -66c21 -19 45 -28 74 -28v0
c11 0 43 7 96 22zM893 592l-225 506l-209 -506h434z" />
    <glyph glyph-name="aogonek" unicode="&#x105;" horiz-adv-x="874" 
d="M842 164v0v-111c-23 -16 -64 -38 -123 -65v0c-31 -36 -47 -74 -47 -113v0c0 -26 9 -48 27 -66c17 -19 41 -28 71 -28v0c22 0 55 7 100 22v0v-137c-45 -21 -90 -31 -137 -31v0c-66 0 -119 18 -159 55s-60 83 -60 138v0c0 59 24 115 72 170v0c-30 17 -49 43 -58 78v0
c-81 -63 -164 -94 -247 -94v0c-63 0 -117 22 -160 67c-44 45 -66 98 -66 160v0c0 52 15 97 44 135c29 37 67 68 116 91s153 63 313 118v0v51c0 108 -54 162 -163 162v0c-100 0 -197 -51 -291 -152v0v199c71 83 172 125 305 125v0c67 0 125 -11 174 -34
c48 -23 86 -57 114 -103c28 -47 42 -129 42 -248v0v-391c0 -31 11 -47 32 -47v0c19 0 53 16 101 49zM528 184v0v271c-105 -41 -171 -68 -197 -82c-27 -15 -49 -34 -66 -57c-18 -23 -27 -49 -27 -76v0c0 -37 13 -68 38 -92c25 -25 56 -37 93 -37v0c57 0 110 24 159 73z" />
    <glyph glyph-name="Cacute" unicode="&#x106;" horiz-adv-x="1450" 
d="M1358 324v0v-220c-147 -80 -316 -120 -508 -120v0c-156 0 -288 31 -397 94s-195 149 -258 259s-95 229 -95 357v0c0 203 73 374 218 513s323 208 536 208v0c147 0 310 -38 489 -115v0v-215c-163 93 -323 140 -479 140v0c-160 0 -293 -50 -398 -151
c-106 -101 -159 -228 -159 -380v0c0 -153 52 -279 156 -378s237 -148 399 -148v0c169 0 335 52 496 156zM851 1800h203l-226 -300h-112z" />
    <glyph glyph-name="cacute" unicode="&#x107;" horiz-adv-x="897" 
d="M819 215v0v-180c-91 -34 -181 -51 -268 -51v0c-144 0 -259 43 -344 128c-86 85 -129 200 -129 343v0c0 145 42 261 125 350s193 133 329 133v0c47 0 90 -4 128 -13c37 -9 84 -26 139 -51v0v-194c-92 59 -177 88 -256 88v0c-82 0 -149 -29 -202 -86
c-53 -58 -79 -132 -79 -221v0c0 -94 29 -169 86 -224s133 -83 230 -83v0c70 0 150 20 241 61zM523 1419h203l-226 -300h-112z" />
    <glyph glyph-name="Ccaron" unicode="&#x10c;" horiz-adv-x="1450" 
d="M1358 324v0v-220c-147 -80 -316 -120 -508 -120v0c-156 0 -288 31 -397 94s-195 149 -258 259s-95 229 -95 357v0c0 203 73 374 218 513s323 208 536 208v0c147 0 310 -38 489 -115v0v-215c-163 93 -323 140 -479 140v0c-160 0 -293 -50 -398 -151
c-106 -101 -159 -228 -159 -380v0c0 -153 52 -279 156 -378s237 -148 399 -148v0c169 0 335 52 496 156zM1060 1809h114l-227 -309h-189l-224 309h114l206 -173z" />
    <glyph glyph-name="ccaron" unicode="&#x10d;" horiz-adv-x="897" 
d="M819 215v0v-180c-91 -34 -181 -51 -268 -51v0c-144 0 -259 43 -344 128c-86 85 -129 200 -129 343v0c0 145 42 261 125 350s193 133 329 133v0c47 0 90 -4 128 -13c37 -9 84 -26 139 -51v0v-194c-92 59 -177 88 -256 88v0c-82 0 -149 -29 -202 -86
c-53 -58 -79 -132 -79 -221v0c0 -94 29 -169 86 -224s133 -83 230 -83v0c70 0 150 20 241 61zM725 1427h114l-227 -309h-189l-224 309h114l206 -173z" />
    <glyph glyph-name="Dcaron" unicode="&#x10e;" horiz-adv-x="1536" 
d="M598 2h-442v1395h471c190 0 340 -28 451 -85s199 -141 264 -252s98 -231 98 -362v0c0 -93 -18 -183 -54 -268s-87 -160 -154 -225v0c-68 -67 -147 -117 -237 -151v0c-53 -21 -101 -34 -145 -41s-128 -11 -252 -11v0zM606 1219v0h-250v-1039h256c100 0 178 7 233 21
c55 13 102 31 139 52s70 46 101 77v0c99 100 148 226 148 379v0c0 150 -51 272 -152 367v0c-37 35 -80 64 -128 87c-49 23 -95 38 -138 45s-113 11 -209 11zM898 1809h114l-227 -309h-189l-224 309h114l206 -173z" />
    <glyph glyph-name="dcaron" unicode="&#x10f;" horiz-adv-x="1216" 
d="M743 901v496h183v-1397h-389c-136 0 -244 43 -325 129s-122 201 -122 346v0c0 135 43 247 128 334s193 131 325 131v0c61 0 128 -13 200 -39v0zM602 156h141v583c-57 29 -114 43 -172 43v0c-91 0 -163 -30 -216 -89c-54 -59 -81 -139 -81 -240v0c0 -95 23 -168 70 -219v0
c28 -31 58 -51 89 -62s88 -16 169 -16v0zM1046 902v0v38c56 50 84 119 85 206v0c-71 21 -106 65 -106 131v0c0 35 12 66 36 93s53 40 87 40v0c43 0 77 -19 102 -57c25 -39 37 -84 37 -136v0c0 -68 -21 -132 -62 -191c-41 -60 -101 -101 -179 -124z" />
    <glyph glyph-name="Dcroat" unicode="&#x110;" horiz-adv-x="1536" 
d="M155 0v633h-163v131h163v633h472c160 0 296 -21 407 -64s206 -122 286 -238s120 -248 120 -396v0c0 -115 -25 -220 -75 -315s-117 -174 -200 -236c-83 -63 -168 -103 -254 -121s-191 -27 -314 -27v0h-442zM751 633h-396v-452h258c162 0 283 22 364 67
c81 44 144 108 189 191s67 173 67 269v0c0 88 -19 168 -56 241c-38 73 -89 131 -154 174s-128 70 -187 81c-60 10 -137 15 -230 15v0h-251v-455h396v-131z" />
    <glyph glyph-name="dcroat" unicode="&#x111;" horiz-adv-x="1045" 
d="M926 1397v-189h159v-106h-159v-1102h-390c-145 0 -255 46 -331 137c-77 91 -115 203 -115 336v0c0 140 44 253 132 338c87 85 194 127 320 127v0c65 0 131 -12 199 -36v0v200h-220v106h220v189h185zM741 154v586c-53 29 -110 43 -171 43v0c-87 0 -158 -29 -213 -87
c-55 -59 -83 -140 -83 -243v0c0 -76 15 -138 45 -185c29 -47 64 -78 103 -92c39 -15 99 -22 180 -22v0h139z" />
    <glyph glyph-name="Eogonek" unicode="&#x118;" 
d="M965 -197v0v-137c-49 -21 -99 -31 -150 -31v0c-60 0 -109 18 -148 55c-39 36 -59 82 -59 138v0c0 59 25 116 74 172v0h-528v1397h792v-180h-592v-422h572v-181h-572v-434h611v-180h-144c-38 -52 -57 -94 -57 -125v0c0 -26 10 -48 31 -66c20 -19 44 -28 73 -28v0
c10 0 42 7 97 22z" />
    <glyph glyph-name="eogonek" unicode="&#x119;" horiz-adv-x="981" 
d="M889 -197v0v-137c-45 -21 -91 -31 -137 -31v0c-66 0 -119 18 -159 55c-41 36 -61 82 -61 138v0c0 51 20 103 60 156v0c-4 0 -13 -1 -27 -2v0h-28c-135 0 -244 46 -328 137c-85 91 -127 206 -127 346v0c0 142 40 256 120 343s183 130 310 130v0c120 0 217 -43 290 -128
c73 -86 109 -200 109 -343v0v-23h-647c5 -85 35 -155 90 -208s124 -80 209 -80v0c121 0 232 37 332 112v0v-178c-25 -16 -70 -40 -135 -72v0c-48 -57 -72 -105 -72 -143v0c0 -27 10 -50 30 -67c20 -18 43 -27 68 -27v0c36 0 70 7 103 22zM268 553v0h463
c-9 151 -83 227 -221 227v0c-135 0 -216 -76 -242 -227z" />
    <glyph glyph-name="Ecaron" unicode="&#x11a;" 
d="M154 2v1395h792v-178h-592v-426h572v-179h-572v-434h611v-178h-811zM766 1809h114l-227 -309h-189l-224 309h114l206 -173z" />
    <glyph glyph-name="ecaron" unicode="&#x11b;" horiz-adv-x="981" 
d="M913 467v-23h-647c5 -88 34 -158 89 -210c54 -52 124 -78 210 -78v0c120 0 231 37 332 112v0v-178c-56 -37 -111 -64 -166 -80s-120 -24 -194 -24v0c-101 0 -183 21 -246 63s-113 99 -150 170c-38 71 -57 153 -57 246v0c0 140 40 254 119 342c79 87 182 131 309 131v0
c122 0 219 -43 292 -128s109 -200 109 -343v0zM270 553v0h463c-5 73 -26 129 -65 168s-91 59 -156 59v0c-65 0 -119 -20 -160 -59c-42 -39 -69 -95 -82 -168zM726 1427h114l-227 -309h-189l-224 309h114l206 -173z" />
    <glyph glyph-name="dotlessi" unicode="&#x131;" horiz-adv-x="449" 
d="M133 0v920h182v-920h-182z" />
    <glyph glyph-name="Lacute" unicode="&#x139;" horiz-adv-x="1004" 
d="M154 0v1397h200v-1215h629v-182h-829zM604 1800h203l-226 -300h-112z" />
    <glyph glyph-name="lacute" unicode="&#x13a;" horiz-adv-x="449" 
d="M133 0v1397h182v-1397h-182zM246 1800h203l-226 -300h-112z" />
    <glyph glyph-name="Lcaron" unicode="&#x13d;" horiz-adv-x="1004" 
d="M154 0v1397h200v-1215h629v-182h-829zM788 1809h114l-227 -309h-189l-224 309h114l206 -173z" />
    <glyph glyph-name="lcaron" unicode="&#x13e;" horiz-adv-x="597" 
d="M133 0v1397h182v-1397h-182zM430 902v0v38c56 50 84 119 85 206v0c-71 21 -106 65 -106 131v0c0 35 12 66 36 93s53 40 87 40v0c43 0 77 -19 102 -57c25 -39 37 -84 37 -136v0c0 -68 -21 -132 -62 -191c-41 -60 -101 -101 -179 -124z" />
    <glyph glyph-name="Lslash" unicode="&#x141;" horiz-adv-x="1004" 
d="M152 702v695h200v-533l283 232v-176l-283 -244v-488h631v-188h-831v512l-181 -145v186z" />
    <glyph glyph-name="lslash" unicode="&#x142;" horiz-adv-x="449" 
d="M135 713v684h182v-539l164 129v-162l-164 -133v-692h-182v545l-160 -125v162z" />
    <glyph glyph-name="Nacute" unicode="&#x143;" horiz-adv-x="1599" 
d="M1264 313v1084h190v-1397h-172l-934 1075v-1075h-188v1397h162zM844 1800h203l-226 -300h-112z" />
    <glyph glyph-name="nacute" unicode="&#x144;" 
d="M125 920h186v-117c81 90 174 135 277 135v0c57 0 111 -15 160 -44c49 -30 87 -71 113 -122c25 -52 38 -134 38 -246v0v-526h-182v524c0 94 -14 161 -43 202c-29 40 -77 60 -144 60v0c-86 0 -159 -43 -219 -129v0v-657h-186v920zM534 1419h203l-226 -300h-112z" />
    <glyph glyph-name="Ncaron" unicode="&#x147;" horiz-adv-x="1599" 
d="M1264 313v1084h190v-1397h-172l-934 1075v-1075h-188v1397h162zM1012 1809h114l-227 -309h-189l-224 309h114l206 -173z" />
    <glyph glyph-name="ncaron" unicode="&#x148;" 
d="M125 920h186v-117c81 90 174 135 277 135v0c57 0 111 -15 160 -44c49 -30 87 -71 113 -122c25 -52 38 -134 38 -246v0v-526h-182v524c0 94 -14 161 -43 202c-29 40 -77 60 -144 60v0c-86 0 -159 -43 -219 -129v0v-657h-186v920zM718 1427h114l-227 -309h-189l-224 309
h114l206 -173z" />
    <glyph glyph-name="Ohungarumlaut" unicode="&#x150;" horiz-adv-x="1686" 
d="M840 1417v0c216 0 396 -68 540 -205c143 -137 215 -308 215 -514v0c0 -206 -72 -376 -217 -511s-328 -203 -549 -203v0c-211 0 -386 68 -526 203c-141 135 -211 304 -211 507v0c0 209 71 381 212 518s320 205 536 205zM848 1227v0c-160 0 -291 -50 -394 -150
s-155 -228 -155 -383v0c0 -151 52 -276 155 -376s233 -150 388 -150v0c156 0 286 51 391 153c104 102 156 229 156 381v0c0 148 -52 273 -156 374c-105 101 -233 151 -385 151zM738 1800h207l-239 -300h-111zM1067 1800h205l-237 -300h-113z" />
    <glyph glyph-name="ohungarumlaut" unicode="&#x151;" horiz-adv-x="1130" 
d="M569 922v0c140 0 256 -45 349 -135c93 -91 139 -204 139 -341v0c0 -133 -47 -243 -141 -330c-94 -88 -212 -132 -355 -132v0c-138 0 -253 45 -346 134s-139 200 -139 333v0c0 135 47 247 141 337c93 89 211 134 352 134zM559 758v0c-87 0 -159 -29 -215 -86
s-84 -130 -84 -219v0c0 -88 29 -160 86 -215c57 -56 131 -84 221 -84v0c89 0 163 28 220 85c57 56 85 128 85 216v0c0 87 -30 160 -89 217s-134 86 -224 86zM473 1422h207l-239 -300h-111zM802 1422h205l-237 -300h-113z" />
    <glyph glyph-name="OE" unicode="&#x152;" horiz-adv-x="1878" 
d="M887 1397v0h905v-178h-571v-422h551v-179h-551v-438h594v-178h-861c-153 0 -278 16 -373 47c-96 31 -183 80 -260 147v0c-150 129 -225 295 -225 496v0c0 210 73 380 219 510s337 195 572 195zM881 174v0h139v1049h-78c-155 0 -275 -24 -362 -71s-154 -111 -201 -191
c-48 -80 -72 -168 -72 -263v0c0 -149 55 -274 164 -374s246 -150 410 -150z" />
    <glyph glyph-name="oe" unicode="&#x153;" horiz-adv-x="1706" 
d="M1278 938v0c100 0 183 -35 248 -105v0c33 -35 58 -77 76 -126c17 -49 28 -118 32 -207v0h-577v-23c0 -109 27 -190 81 -245s122 -82 205 -82v0c95 0 192 38 291 114v0v-184c-58 -36 -110 -61 -156 -74c-47 -13 -105 -20 -175 -20v0c-156 0 -270 59 -342 178v0
c-98 -120 -232 -180 -402 -180v0c-138 0 -254 46 -347 137s-140 203 -140 338v0c0 137 48 251 143 342s215 137 358 137v0c161 0 291 -63 388 -190v0c37 61 83 108 138 141s115 49 179 49zM1075 618v0h377c-23 108 -83 162 -180 162v0c-47 0 -88 -14 -122 -42
c-35 -29 -60 -69 -75 -120zM567 760v0c-88 0 -161 -29 -218 -87c-58 -58 -87 -131 -87 -220v0c0 -85 29 -155 88 -211c58 -56 131 -84 219 -84v0c88 0 160 28 216 84c55 56 83 128 83 217v0c0 87 -28 159 -85 216s-129 85 -216 85z" />
    <glyph glyph-name="Racute" unicode="&#x154;" horiz-adv-x="1237" 
d="M360 0h-200v1397h350c141 0 254 -35 337 -105s124 -165 124 -284v0c0 -81 -20 -152 -61 -211s-99 -104 -175 -133v0c45 -29 88 -69 131 -120s103 -139 180 -265v0c49 -79 88 -139 117 -179v0l74 -100h-238l-61 92c-2 3 -6 9 -12 17v0l-39 55l-62 102l-67 109
c-41 57 -79 103 -113 137c-35 34 -66 59 -93 74c-28 15 -75 22 -140 22v0h-52v-608zM420 1227v0h-60v-441h76c101 0 171 9 209 26c37 17 67 44 88 79s31 74 31 119v0c0 44 -12 84 -35 120c-23 35 -56 60 -98 75c-43 15 -113 22 -211 22zM549 1800h203l-226 -300h-112z" />
    <glyph glyph-name="racute" unicode="&#x155;" horiz-adv-x="811" 
d="M141 920h183v-211l10 16c88 142 176 213 264 213v0c69 0 140 -35 215 -104v0l-96 -160c-63 60 -122 90 -176 90v0c-59 0 -109 -28 -152 -84s-65 -122 -65 -199v0v-481h-183v920zM498 1419h203l-226 -300h-112z" />
    <glyph glyph-name="Rcaron" unicode="&#x158;" horiz-adv-x="1237" 
d="M360 0h-200v1397h350c141 0 254 -35 337 -105s124 -165 124 -284v0c0 -81 -20 -152 -61 -211s-99 -104 -175 -133v0c45 -29 88 -69 131 -120s103 -139 180 -265v0c49 -79 88 -139 117 -179v0l74 -100h-238l-61 92c-2 3 -6 9 -12 17v0l-39 55l-62 102l-67 109
c-41 57 -79 103 -113 137c-35 34 -66 59 -93 74c-28 15 -75 22 -140 22v0h-52v-608zM420 1227v0h-60v-441h76c101 0 171 9 209 26c37 17 67 44 88 79s31 74 31 119v0c0 44 -12 84 -35 120c-23 35 -56 60 -98 75c-43 15 -113 22 -211 22zM762 1809h114l-227 -309h-189
l-224 309h114l206 -173z" />
    <glyph glyph-name="rcaron" unicode="&#x159;" horiz-adv-x="811" 
d="M141 920h183v-211l10 16c88 142 176 213 264 213v0c69 0 140 -35 215 -104v0l-96 -160c-63 60 -122 90 -176 90v0c-59 0 -109 -28 -152 -84s-65 -122 -65 -199v0v-481h-183v920zM683 1427h114l-227 -309h-189l-224 309h114l206 -173z" />
    <glyph glyph-name="Sacute" unicode="&#x15a;" horiz-adv-x="938" 
d="M500 586v0l-152 92c-95 58 -163 115 -203 172c-41 56 -61 121 -61 194v0c0 110 38 199 115 268c76 69 175 103 297 103v0c117 0 224 -33 321 -98v0v-227c-101 97 -209 145 -325 145v0c-65 0 -119 -15 -161 -45c-42 -31 -63 -70 -63 -117v0c0 -42 15 -81 46 -118
s80 -75 149 -115v0l153 -90c171 -101 256 -231 256 -388v0c0 -112 -37 -203 -112 -273s-173 -105 -293 -105v0c-138 0 -264 42 -377 127v0v254c108 -137 233 -205 375 -205v0c63 0 115 18 157 53c41 35 62 78 62 131v0c0 85 -61 166 -184 242zM516 1800h203l-226 -300h-112z
" />
    <glyph glyph-name="sacute" unicode="&#x15b;" horiz-adv-x="788" 
d="M84 66v0v196c51 -36 104 -65 158 -87c53 -23 98 -34 135 -34v0c38 0 71 9 98 28s41 41 41 67v0c0 27 -9 49 -26 67c-18 17 -56 43 -115 76v0c-117 65 -194 121 -230 168c-37 46 -55 96 -55 151v0c0 71 28 128 83 173s125 67 212 67v0c90 0 182 -25 277 -76v0v-180
c-108 65 -196 98 -265 98v0c-35 0 -64 -7 -85 -22c-22 -15 -33 -35 -33 -60v0c0 -21 10 -42 30 -61c19 -19 54 -43 103 -70v0l65 -37c153 -87 230 -183 230 -288v0c0 -75 -29 -137 -88 -185c-59 -49 -135 -73 -228 -73v0c-55 0 -103 6 -146 18c-43 11 -96 33 -161 64z
M417 1419h203l-226 -300h-112z" />
    <glyph glyph-name="Scedilla" unicode="&#x15e;" horiz-adv-x="938" 
d="M500 586v0l-152 92c-95 58 -163 115 -203 172c-41 56 -61 121 -61 194v0c0 110 38 199 115 268c76 69 175 103 297 103v0c117 0 224 -33 321 -98v0v-227c-101 97 -209 145 -325 145v0c-65 0 -119 -15 -161 -45c-42 -31 -63 -70 -63 -117v0c0 -42 15 -81 46 -118
s80 -75 149 -115v0l153 -90c171 -101 256 -231 256 -388v0c0 -112 -37 -203 -112 -273s-173 -105 -293 -105v0c-138 0 -264 42 -377 127v0v254c108 -137 233 -205 375 -205v0c63 0 115 18 157 53c41 35 62 78 62 131v0c0 85 -61 166 -184 242zM365 -578v0v38
c56 50 84 119 85 206v0c-71 21 -106 65 -106 131v0c0 35 12 66 36 93s53 40 87 40v0c43 0 77 -19 102 -57c25 -39 37 -84 37 -136v0c0 -68 -21 -132 -62 -191c-41 -60 -101 -101 -179 -124z" />
    <glyph glyph-name="scedilla" unicode="&#x15f;" horiz-adv-x="788" 
d="M84 66v0v196c51 -36 104 -65 158 -87c53 -23 98 -34 135 -34v0c38 0 71 9 98 28s41 41 41 67v0c0 27 -9 49 -26 67c-18 17 -56 43 -115 76v0c-117 65 -194 121 -230 168c-37 46 -55 96 -55 151v0c0 71 28 128 83 173s125 67 212 67v0c90 0 182 -25 277 -76v0v-180
c-108 65 -196 98 -265 98v0c-35 0 -64 -7 -85 -22c-22 -15 -33 -35 -33 -60v0c0 -21 10 -42 30 -61c19 -19 54 -43 103 -70v0l65 -37c153 -87 230 -183 230 -288v0c0 -75 -29 -137 -88 -185c-59 -49 -135 -73 -228 -73v0c-55 0 -103 6 -146 18c-43 11 -96 33 -161 64z
M289 -578v0v38c56 50 84 119 85 206v0c-71 21 -106 65 -106 131v0c0 35 12 66 36 93s53 40 87 40v0c43 0 77 -19 102 -57c25 -39 37 -84 37 -136v0c0 -68 -21 -132 -62 -191c-41 -60 -101 -101 -179 -124z" />
    <glyph glyph-name="Scaron" unicode="&#x160;" horiz-adv-x="938" 
d="M500 586v0l-152 92c-95 58 -163 115 -203 172c-41 56 -61 121 -61 194v0c0 110 38 199 115 268c76 69 175 103 297 103v0c117 0 224 -33 321 -98v0v-227c-101 97 -209 145 -325 145v0c-65 0 -119 -15 -161 -45c-42 -31 -63 -70 -63 -117v0c0 -42 15 -81 46 -118
s80 -75 149 -115v0l153 -90c171 -101 256 -231 256 -388v0c0 -112 -37 -203 -112 -273s-173 -105 -293 -105v0c-138 0 -264 42 -377 127v0v254c108 -137 233 -205 375 -205v0c63 0 115 18 157 53c41 35 62 78 62 131v0c0 85 -61 166 -184 242zM677 1809h114l-227 -309h-189
l-224 309h114l206 -173z" />
    <glyph glyph-name="scaron" unicode="&#x161;" horiz-adv-x="788" 
d="M84 66v0v196c51 -36 104 -65 158 -87c53 -23 98 -34 135 -34v0c38 0 71 9 98 28s41 41 41 67v0c0 27 -9 49 -26 67c-18 17 -56 43 -115 76v0c-117 65 -194 121 -230 168c-37 46 -55 96 -55 151v0c0 71 28 128 83 173s125 67 212 67v0c90 0 182 -25 277 -76v0v-180
c-108 65 -196 98 -265 98v0c-35 0 -64 -7 -85 -22c-22 -15 -33 -35 -33 -60v0c0 -21 10 -42 30 -61c19 -19 54 -43 103 -70v0l65 -37c153 -87 230 -183 230 -288v0c0 -75 -29 -137 -88 -185c-59 -49 -135 -73 -228 -73v0c-55 0 -103 6 -146 18c-43 11 -96 33 -161 64z
M601 1427h114l-227 -309h-189l-224 309h114l206 -173z" />
    <glyph glyph-name="uni0162" unicode="&#x162;" horiz-adv-x="1237" 
d="M35 1221v178h1167v-178h-487v-1221h-201v1221h-479zM523 -578v0v38c56 50 84 119 85 206v0c-71 21 -106 65 -106 131v0c0 35 12 66 36 93s53 40 87 40v0c43 0 77 -19 102 -57c25 -39 37 -84 37 -136v0c0 -68 -21 -132 -62 -191c-41 -60 -101 -101 -179 -124z" />
    <glyph glyph-name="uni0163" unicode="&#x163;" horiz-adv-x="682" 
d="M0 756v18l342 336v-190h291v-164h-291v-451c0 -105 44 -158 131 -158v0c65 0 134 22 207 66v0v-170c-70 -39 -146 -59 -229 -59v0c-83 0 -153 24 -208 73v0c-17 15 -32 31 -43 50c-11 18 -21 42 -28 72c-8 29 -12 86 -12 169v0v408h-160zM328 -578v0v38
c56 50 84 119 85 206v0c-71 21 -106 65 -106 131v0c0 35 12 66 36 93s53 40 87 40v0c43 0 77 -19 102 -57c25 -39 37 -84 37 -136v0c0 -68 -21 -132 -62 -191c-41 -60 -101 -101 -179 -124z" />
    <glyph glyph-name="Tcaron" unicode="&#x164;" horiz-adv-x="1237" 
d="M35 1221v178h1167v-178h-487v-1221h-201v1221h-479zM825 1809h114l-227 -309h-189l-224 309h114l206 -173z" />
    <glyph glyph-name="tcaron" unicode="&#x165;" horiz-adv-x="896" 
d="M0 756v18l342 336v-190h291v-164h-291v-451c0 -105 44 -158 131 -158v0c65 0 134 22 207 66v0v-170c-70 -39 -146 -59 -229 -59v0c-83 0 -153 24 -208 73v0c-17 15 -32 31 -43 50c-11 18 -21 42 -28 72c-8 29 -12 86 -12 169v0v408h-160zM722 902v0v38
c56 50 84 119 85 206v0c-71 21 -106 65 -106 131v0c0 35 12 66 36 93s53 40 87 40v0c43 0 77 -19 102 -57c25 -39 37 -84 37 -136v0c0 -68 -21 -132 -62 -191c-41 -60 -101 -101 -179 -124z" />
    <glyph glyph-name="Uring" unicode="&#x16e;" horiz-adv-x="1450" 
d="M1126 604v793h201v-793c0 -107 -8 -188 -23 -243c-16 -55 -35 -100 -58 -136c-23 -37 -52 -69 -85 -98v0c-111 -95 -255 -143 -434 -143v0c-182 0 -328 47 -438 142v0c-33 29 -61 62 -84 99c-23 36 -42 80 -57 133s-23 135 -23 248v0v791h201v-793
c0 -131 15 -223 45 -274s76 -92 137 -123s134 -47 217 -47v0c119 0 215 31 290 93v0c39 33 68 73 85 118s26 123 26 233v0zM727 1880v0c51 0 96 -18 133 -55s55 -81 55 -134v0c0 -53 -18 -98 -55 -135s-82 -56 -135 -56v0c-52 0 -96 19 -133 56s-56 81 -56 133v0
c0 53 19 99 57 136c37 37 82 55 134 55zM722 1799v0c-34 0 -61 -10 -81 -30c-21 -21 -31 -47 -31 -80v0c0 -32 11 -59 34 -81c22 -23 49 -34 81 -34v0c32 0 59 11 82 33s34 49 34 80v0c0 31 -11 58 -34 80c-23 21 -51 32 -85 32z" />
    <glyph glyph-name="uring" unicode="&#x16f;" 
d="M897 0h-182v117c-39 -42 -83 -75 -132 -98c-50 -23 -100 -35 -149 -35v0c-58 0 -111 15 -160 44s-86 68 -111 118c-25 49 -38 132 -38 247v0v527h182v-525c0 -97 14 -164 42 -202c27 -39 76 -58 145 -58v0c87 0 160 42 221 127v0v658h182v-920zM510 1497v0
c51 0 96 -18 133 -55s55 -81 55 -134v0c0 -53 -18 -98 -55 -135s-82 -56 -135 -56v0c-52 0 -96 19 -133 56s-56 81 -56 133v0c0 53 19 99 57 136c37 37 82 55 134 55zM505 1416v0c-34 0 -61 -10 -81 -30c-21 -21 -31 -47 -31 -80v0c0 -32 11 -59 34 -81
c22 -23 49 -34 81 -34v0c32 0 59 11 82 33s34 49 34 80v0c0 31 -11 58 -34 80c-23 21 -51 32 -85 32z" />
    <glyph glyph-name="Uhungarumlaut" unicode="&#x170;" horiz-adv-x="1450" 
d="M1126 604v793h201v-793c0 -107 -8 -188 -23 -243c-16 -55 -35 -100 -58 -136c-23 -37 -52 -69 -85 -98v0c-111 -95 -255 -143 -434 -143v0c-182 0 -328 47 -438 142v0c-33 29 -61 62 -84 99c-23 36 -42 80 -57 133s-23 135 -23 248v0v791h201v-793
c0 -131 15 -223 45 -274s76 -92 137 -123s134 -47 217 -47v0c119 0 215 31 290 93v0c39 33 68 73 85 118s26 123 26 233v0zM638 1800h207l-239 -300h-111zM967 1800h205l-237 -300h-113z" />
    <glyph glyph-name="uhungarumlaut" unicode="&#x171;" 
d="M897 0h-182v117c-39 -42 -83 -75 -132 -98c-50 -23 -100 -35 -149 -35v0c-58 0 -111 15 -160 44s-86 68 -111 118c-25 49 -38 132 -38 247v0v527h182v-525c0 -97 14 -164 42 -202c27 -39 76 -58 145 -58v0c87 0 160 42 221 127v0v658h182v-920zM395 1422h207l-239 -300
h-111zM724 1422h205l-237 -300h-113z" />
    <glyph glyph-name="Ydieresis" unicode="&#x178;" horiz-adv-x="1237" 
d="M616 915l379 482h242l-516 -658v-739h-205v739l-516 658h242zM400 1706v0c26 0 49 -9 68 -28s28 -41 28 -68v0c0 -27 -9 -49 -27 -67c-18 -19 -40 -28 -66 -28v0c-27 0 -49 10 -68 29s-28 41 -28 67v0c0 27 9 49 28 68c18 18 40 27 65 27zM785 1706v0c26 0 49 -9 68 -28
s28 -41 28 -68v0c0 -27 -9 -49 -27 -67c-18 -19 -40 -28 -66 -28v0c-27 0 -49 10 -68 29s-28 41 -28 67v0c0 27 9 49 28 68c18 18 40 27 65 27z" />
    <glyph glyph-name="Zacute" unicode="&#x179;" horiz-adv-x="1323" 
d="M82 1221v178h1204l-893 -1221h893v-178h-1261l895 1221h-838zM692 1800h203l-226 -300h-112z" />
    <glyph glyph-name="zacute" unicode="&#x17a;" horiz-adv-x="854" 
d="M43 750v170h786l-487 -750h487v-170h-806l483 750h-463zM448 1419h203l-226 -300h-112z" />
    <glyph glyph-name="Zdotaccent" unicode="&#x17b;" horiz-adv-x="1323" 
d="M82 1221v178h1204l-893 -1221h893v-178h-1261l895 1221h-838zM654 1739v0c34 0 63 -12 87 -35s36 -52 36 -86v0c0 -33 -12 -61 -35 -84c-24 -23 -53 -34 -88 -34v0c-34 0 -63 11 -86 34s-35 51 -35 84v0c0 34 12 63 35 86s52 35 86 35z" />
    <glyph glyph-name="zdotaccent" unicode="&#x17c;" horiz-adv-x="854" 
d="M43 750v170h786l-487 -750h487v-170h-806l483 750h-463zM450 1356v0c34 0 63 -12 87 -35s36 -52 36 -86v0c0 -33 -12 -61 -35 -84c-24 -23 -53 -34 -88 -34v0c-34 0 -63 11 -86 34s-35 51 -35 84v0c0 34 12 63 35 86s52 35 86 35z" />
    <glyph glyph-name="Zcaron" unicode="&#x17d;" horiz-adv-x="1323" 
d="M82 1221v178h1204l-893 -1221h893v-178h-1261l895 1221h-838zM867 1809h114l-227 -309h-189l-224 309h114l206 -173z" />
    <glyph glyph-name="zcaron" unicode="&#x17e;" horiz-adv-x="854" 
d="M43 750v170h786l-487 -750h487v-170h-806l483 750h-463zM634 1427h114l-227 -309h-189l-224 309h114l206 -173z" />
    <glyph glyph-name="florin" unicode="&#x192;" horiz-adv-x="1130" 
d="M926 922h-205l-191 -1090c-16 -93 -44 -160 -84 -200s-99 -60 -176 -60v0c-68 0 -142 8 -223 25v0l35 155c66 -15 116 -22 151 -22v0c39 0 68 11 86 32c17 21 31 62 41 121v0l179 1039h-201l22 139h203l25 135c15 97 39 166 71 209v0c51 60 123 90 218 90v0
c27 0 66 -7 118 -20v0l72 -17l18 -4l-34 -154c-72 17 -123 25 -154 25v0c-42 0 -71 -10 -88 -31s-32 -64 -43 -129v0l-18 -104h202z" />
    <glyph glyph-name="circumflex" unicode="&#x2c6;" horiz-adv-x="683" 
d="M243 1427h190l193 -309h-112l-179 177l-171 -177h-108z" />
    <glyph glyph-name="caron" unicode="&#x2c7;" horiz-adv-x="683" 
d="M548 1427h114l-227 -309h-189l-224 309h114l206 -173z" />
    <glyph glyph-name="uni02C9" unicode="&#x2c9;" horiz-adv-x="683" 
d="M3 1339h677v-149h-677v149z" />
    <glyph glyph-name="breve" unicode="&#x2d8;" horiz-adv-x="683" 
d="M492 1397h139c-16 -88 -49 -154 -99 -198c-51 -44 -115 -66 -192 -66v0c-73 0 -136 23 -188 69c-52 45 -86 110 -101 195v0h137c11 -43 29 -75 55 -96s60 -31 102 -31v0c39 0 70 10 95 30c24 19 41 52 52 97v0z" />
    <glyph glyph-name="dotaccent" unicode="&#x2d9;" horiz-adv-x="683" 
d="M342 1356v0c34 0 63 -12 87 -35s36 -52 36 -86v0c0 -33 -12 -61 -35 -84c-24 -23 -53 -34 -88 -34v0c-34 0 -63 11 -86 34s-35 51 -35 84v0c0 34 12 63 35 86s52 35 86 35z" />
    <glyph glyph-name="ring" unicode="&#x2da;" horiz-adv-x="683" 
d="M343 1497v0c51 0 96 -18 133 -55s55 -81 55 -134v0c0 -53 -18 -98 -55 -135s-82 -56 -135 -56v0c-52 0 -96 19 -133 56s-56 81 -56 133v0c0 53 19 99 57 136c37 37 82 55 134 55zM338 1416v0c-34 0 -61 -10 -81 -30c-21 -21 -31 -47 -31 -80v0c0 -32 11 -59 34 -81
c22 -23 49 -34 81 -34v0c32 0 59 11 82 33s34 49 34 80v0c0 31 -11 58 -34 80c-23 21 -51 32 -85 32z" />
    <glyph glyph-name="ogonek" unicode="&#x2db;" horiz-adv-x="683" 
d="M545 -196v0v-137c-47 -21 -93 -31 -138 -31v0c-68 0 -121 18 -160 54s-59 81 -59 135v0c0 65 31 130 92 194v0h136c-48 -65 -72 -113 -72 -144v0c0 -24 10 -45 30 -64c19 -19 42 -29 67 -29v0c18 0 53 7 104 22z" />
    <glyph glyph-name="tilde" unicode="&#x2dc;" horiz-adv-x="683" 
d="M564 1397h78c-1 -81 -19 -144 -56 -189v0c-28 -35 -63 -53 -105 -53v0c-37 0 -86 13 -148 40s-109 40 -140 40v0c-17 0 -32 -7 -45 -20s-20 -33 -23 -60v0h-84c11 94 30 157 58 189c28 31 63 47 106 47v0c39 0 102 -18 189 -53v0c45 -18 77 -27 96 -27v0c19 0 35 7 48 20
s21 35 26 66v0z" />
    <glyph glyph-name="hungarumlaut" unicode="&#x2dd;" horiz-adv-x="683" 
d="M146 1422h207l-239 -300h-111zM475 1422h205l-237 -300h-113z" />
    <glyph glyph-name="pi" unicode="&#x3c0;" horiz-adv-x="1124" 
d="M0 905v158h1124v-158h-162v-905h-189v905h-426v-905h-188v905h-159z" />
    <glyph glyph-name="endash" unicode="&#x2013;" 
d="M-16 453v131h1058v-131h-1058z" />
    <glyph glyph-name="emdash" unicode="&#x2014;" horiz-adv-x="2048" 
d="M-16 453v131h2082v-131h-2082z" />
    <glyph glyph-name="quoteleft" unicode="&#x2018;" horiz-adv-x="449" 
d="M350 1415v0v-31c-57 -63 -86 -129 -86 -198v0c0 -9 1 -16 2 -23v0c71 -23 107 -64 107 -125v0c0 -33 -12 -61 -36 -84c-25 -23 -54 -34 -89 -34v0c-42 0 -75 17 -100 51c-25 33 -37 78 -37 135v0c0 154 80 257 239 309z" />
    <glyph glyph-name="quoteright" unicode="&#x2019;" horiz-adv-x="449" 
d="M100 907v0v39c30 29 51 58 63 87s19 68 21 118v0c-71 23 -106 66 -106 131v0c0 37 12 68 37 94c24 26 53 39 86 39v0c41 0 74 -18 100 -54s39 -82 39 -138v0c0 -75 -21 -140 -64 -196c-43 -57 -101 -97 -176 -120z" />
    <glyph glyph-name="quotesinglbase" unicode="&#x201a;" horiz-adv-x="449" 
d="M100 -242v0v37c30 29 51 58 63 87s19 68 21 118v0c-71 21 -106 64 -106 131v0c0 36 12 67 37 94c24 26 53 39 86 39v0c41 0 74 -18 100 -54s39 -82 39 -138v0c0 -74 -21 -139 -64 -195s-101 -96 -176 -119z" />
    <glyph glyph-name="quotedblleft" unicode="&#x201c;" horiz-adv-x="874" 
d="M764 1415v0v-41c-24 -16 -43 -40 -58 -71c-15 -32 -22 -66 -22 -101v0c0 -17 1 -34 4 -49v0c31 -2 56 -13 75 -34s28 -48 28 -81v0c0 -33 -11 -61 -34 -84s-52 -34 -87 -34v0c-43 0 -78 18 -105 53s-41 81 -41 137v0c0 45 10 88 29 130s44 76 76 103c32 26 77 50 135 72z
M223 1204l4 -51h9c25 0 47 -12 66 -35s28 -50 28 -80v0c0 -33 -11 -61 -33 -84s-49 -34 -82 -34v0c-42 0 -77 19 -105 56s-42 84 -42 140v0c0 71 21 133 63 186c41 53 99 90 172 113v0v-43c-53 -43 -80 -99 -80 -168v0z" />
    <glyph glyph-name="quotedblright" unicode="&#x201d;" horiz-adv-x="874" 
d="M651 1145v0v26c-71 9 -106 50 -106 121v0c0 36 11 66 34 89c22 23 50 34 85 34v0c43 0 77 -17 104 -52c26 -35 39 -81 39 -138v0c0 -73 -21 -136 -63 -191c-43 -55 -100 -93 -173 -114v0v38c53 47 80 109 80 187zM190 1147v0v22c-31 3 -56 15 -74 36
c-19 21 -28 47 -28 79v0c0 40 11 72 33 96c22 23 51 35 88 35v0c42 0 76 -18 102 -53c26 -36 39 -83 39 -141v0c0 -146 -80 -246 -239 -301v0v38c53 41 79 104 79 189z" />
    <glyph glyph-name="quotedblbase" unicode="&#x201e;" horiz-adv-x="918" 
d="M588 -236v0v37c53 60 80 126 80 199v0c0 7 -1 14 -2 23v0c-33 4 -58 17 -77 38s-28 49 -28 82v0c0 36 11 66 34 89c22 23 50 34 85 34v0c43 0 77 -18 104 -53c26 -36 39 -83 39 -141v0c0 -72 -21 -136 -64 -192s-100 -95 -171 -116zM125 -238v0v41c56 57 84 122 84 193v0
c0 1 0 4 -1 8v0c-1 6 -1 11 -1 16v0c-32 3 -57 16 -76 37s-29 47 -29 78v0c0 40 11 72 33 97c22 24 51 36 88 36v0c43 0 77 -18 103 -55s39 -85 39 -145v0c0 -43 -9 -84 -26 -123c-18 -40 -43 -75 -76 -105c-33 -31 -79 -57 -138 -78z" />
    <glyph glyph-name="dagger" unicode="&#x2020;" horiz-adv-x="1004" 
d="M506 1415v0c64 0 96 -61 96 -184v0c0 -69 -11 -153 -33 -250v0l-28 -133c91 35 179 53 264 53v0c42 0 76 -9 103 -26c27 -18 40 -41 40 -68v0c0 -26 -13 -47 -39 -64s-59 -26 -98 -26v0c-55 0 -145 18 -270 53v0l8 -106l10 -117l13 -152c21 -226 31 -406 31 -541v0
c0 -120 -8 -204 -24 -251c-17 -48 -44 -72 -81 -72v0c-40 0 -68 23 -83 68c-16 45 -24 124 -24 239v0c0 64 8 204 25 419c16 215 27 349 33 402v0l12 111c-3 -1 -12 -3 -25 -7v0c-93 -31 -172 -46 -237 -46v0c-44 0 -79 8 -105 24s-39 37 -39 64v0c0 29 13 53 38 70
s60 26 104 26v0c89 0 177 -18 264 -53v0l-25 125c-22 117 -33 202 -33 254v0c0 59 9 106 28 139c18 33 43 49 75 49z" />
    <glyph glyph-name="daggerdbl" unicode="&#x2021;" horiz-adv-x="1004" 
d="M55 854v0c0 29 13 53 40 71s62 27 106 27v0c67 0 155 -17 262 -51v0l-37 168c-15 68 -23 130 -23 186v0c0 47 9 86 28 116c19 29 43 44 73 44v0c30 0 54 -15 72 -46c17 -31 26 -72 26 -124v0c0 -67 -16 -163 -47 -287v0l-14 -57c115 34 205 51 270 51v0
c39 0 72 -9 97 -26s38 -39 38 -66v0c0 -27 -13 -49 -39 -66c-27 -17 -61 -26 -102 -26v0c-71 0 -159 18 -264 53v0c0 -47 8 -122 23 -227v0c7 -52 11 -94 11 -125v0c0 -16 -3 -50 -10 -102v0l-18 -125c-4 -26 -6 -64 -6 -115v0c102 34 193 51 274 51v0c38 0 70 -9 95 -26
s38 -39 38 -64v0c0 -29 -12 -51 -36 -66c-24 -16 -58 -24 -101 -24v0c-81 0 -171 18 -270 53v0c41 -149 61 -266 61 -352v0c0 -51 -10 -91 -29 -122s-45 -46 -77 -46v0c-28 0 -50 16 -67 47s-26 71 -26 121v0c0 82 20 199 60 352v0c-112 -37 -204 -55 -275 -55v0
c-41 0 -74 8 -97 25c-24 16 -36 38 -36 67v0c0 26 13 48 40 66c27 17 59 26 98 26v0c61 0 151 -18 270 -53v0l-10 119l-15 116c-5 55 -8 92 -8 111v0c0 29 4 69 13 121v0c13 82 20 152 20 211v0v16l-33 -8c-119 -30 -199 -45 -240 -45v0c-39 0 -72 8 -97 25
c-25 16 -38 36 -38 61z" />
    <glyph glyph-name="bullet" unicode="&#x2022;" horiz-adv-x="725" 
d="M109 698v0c0 70 25 130 75 180c49 49 109 74 178 74v0c71 0 131 -25 180 -74s74 -109 74 -180v0c0 -70 -25 -130 -74 -179c-50 -50 -110 -75 -180 -75v0c-69 0 -129 25 -178 75c-50 50 -75 110 -75 179z" />
    <glyph glyph-name="ellipsis" unicode="&#x2026;" horiz-adv-x="2048" 
d="M1708 227v0c34 0 63 -12 86 -36s35 -53 35 -87v0c0 -33 -12 -62 -35 -85s-52 -35 -86 -35v0c-35 0 -64 12 -87 35c-24 23 -36 51 -36 85v0c0 35 12 64 36 88c23 23 52 35 87 35zM1024 227v0c34 0 63 -12 87 -36s36 -53 36 -87v0c0 -33 -12 -62 -36 -85s-53 -35 -87 -35v0
c-34 0 -63 12 -86 35s-35 52 -35 85v0c0 34 12 63 35 87s52 36 86 36zM340 225v0c34 0 63 -12 87 -37s36 -54 36 -88v0c0 -33 -12 -61 -35 -84c-24 -23 -53 -34 -88 -34v0c-34 0 -63 11 -86 34s-35 51 -35 84v0c0 35 12 64 36 89c23 24 52 36 85 36z" />
    <glyph glyph-name="perthousand" unicode="&#x2030;" horiz-adv-x="2068" 
d="M125 -16l922 1433h153l-919 -1433h-156zM995 608v0c86 0 160 -30 222 -91c61 -61 92 -134 92 -220v0c0 -85 -31 -158 -92 -217c-61 -60 -135 -90 -222 -90v0c-87 0 -160 30 -220 90c-61 59 -91 132 -91 217v0c0 86 30 159 91 220s134 91 220 91zM995 457v0
c-44 0 -81 -16 -112 -47s-47 -69 -47 -113v0c0 -45 16 -83 47 -114c31 -32 68 -48 112 -48v0c45 0 84 16 115 47s47 70 47 115v0c0 44 -16 82 -47 113c-32 31 -70 47 -115 47zM338 1413v0c86 0 159 -31 220 -92s91 -135 91 -221v0c0 -85 -30 -159 -91 -220
s-135 -92 -220 -92v0c-85 0 -158 31 -219 92s-92 135 -92 220v0c0 86 30 160 91 221s134 92 220 92zM336 1262v0c-45 0 -83 -16 -114 -47c-32 -31 -48 -70 -48 -115v0c0 -44 16 -82 48 -113c31 -31 69 -47 114 -47v0c44 0 82 16 114 47s48 69 48 113v0c0 45 -16 83 -47 115
c-32 31 -70 47 -115 47zM1733 608v0c86 0 159 -30 220 -91s91 -134 91 -220v0c0 -85 -30 -158 -90 -217c-61 -60 -134 -90 -221 -90v0c-87 0 -160 30 -221 90c-61 59 -91 132 -91 217v0c0 86 31 159 92 220s134 91 220 91zM1733 457v0c-45 0 -82 -15 -113 -46
s-47 -69 -47 -114v0c0 -45 15 -84 46 -115s69 -47 114 -47v0c44 0 82 16 113 48c31 31 46 69 46 114v0c0 44 -15 82 -46 113s-69 47 -113 47z" />
    <glyph glyph-name="guilsinglleft" unicode="&#x2039;" horiz-adv-x="641" 
d="M555 920l-303 -459l303 -461h-180l-301 461l301 459h180z" />
    <glyph glyph-name="guilsinglright" unicode="&#x203a;" horiz-adv-x="641" 
d="M86 0l303 459l-303 461h178l303 -461l-303 -459h-178z" />
    <glyph glyph-name="fraction" unicode="&#x2044;" horiz-adv-x="405" 
d="M599 1416h138l-931 -1471h-138z" />
    <glyph glyph-name="Euro" unicode="&#x20ac;" horiz-adv-x="1249" 
d="M426 909v0h594l-29 -155h-590c-1 -15 -2 -32 -2 -50v0c0 -19 1 -39 2 -61v0h570l-29 -156h-516c61 -214 186 -321 377 -321v0c121 0 236 46 346 137v0v-219c-96 -68 -213 -102 -352 -102v0c-153 0 -280 45 -379 134s-166 213 -199 371v0h-162l29 156h115c0 49 1 86 2 111
v0h-146l27 155h141c41 157 113 280 216 371c103 90 225 135 366 135v0c106 0 223 -22 350 -67v0l-39 -191c-116 49 -222 74 -317 74v0c-187 0 -312 -107 -375 -322z" />
    <glyph glyph-name="trademark" unicode="&#x2122;" horiz-adv-x="2048" 
d="M625 1277v-695h-136v695h-264v120h666v-120h-266zM1108 1277v-695h-125v815h201l205 -651l198 651h197v-815h-125v684l-209 -684h-123z" />
    <glyph glyph-name="Omega" unicode="&#x2126;" horiz-adv-x="1573" 
d="M127 168l369 -8c-72 45 -127 88 -165 130v0c-58 64 -103 139 -134 226c-31 86 -47 181 -47 286v0c0 131 27 251 80 361c53 109 130 193 231 252s216 88 347 88v0c224 0 396 -85 516 -254v0c87 -124 131 -273 131 -448v0c0 -112 -18 -211 -54 -297
c-36 -87 -83 -161 -141 -223v0c-35 -39 -85 -79 -149 -121v0l364 6v-166h-575v177c53 27 95 53 124 78v0c48 41 89 89 122 145s59 116 76 179s25 129 25 198v0c0 92 -16 185 -49 278s-83 163 -150 212s-149 73 -244 73v0c-127 0 -226 -40 -296 -120v0
c-97 -113 -146 -259 -146 -440v0c0 -145 30 -269 91 -372c61 -104 144 -180 251 -228v0v-180h-577v168z" />
    <glyph glyph-name="partialdiff" unicode="&#x2202;" horiz-adv-x="1012" 
d="M422 1138v0l-135 60c47 105 103 180 168 225s129 68 192 68v0c51 0 97 -13 138 -39c41 -27 71 -57 92 -91v0c31 -53 55 -115 70 -187s22 -155 22 -248v0c0 -192 -29 -363 -86 -512c-58 -150 -136 -261 -234 -332s-194 -107 -289 -107v0c-91 0 -165 30 -222 91
s-86 146 -86 256v0c0 151 51 280 153 387v0c131 138 348 210 649 215v0c-3 112 -11 197 -24 256s-36 104 -68 136c-32 31 -70 47 -113 47v0c-41 0 -82 -16 -121 -49s-75 -92 -106 -176zM850 796v0c-163 -9 -282 -32 -357 -68c-76 -36 -138 -95 -187 -176
c-49 -82 -74 -165 -74 -249v0c0 -55 17 -101 51 -137s74 -54 119 -54v0c50 0 103 18 160 55v0c78 51 142 129 191 235c49 105 81 237 97 394z" />
    <glyph glyph-name="Delta" unicode="&#x2206;" horiz-adv-x="1253" 
d="M12 0l656 1409l577 -1409h-1233zM991 100l-397 959l-447 -959h844z" />
    <glyph glyph-name="product" unicode="&#x220f;" horiz-adv-x="1686" 
d="M161 -431v1922h1362v-1922h-191v1748h-978v-1748h-193z" />
    <glyph glyph-name="summation" unicode="&#x2211;" horiz-adv-x="1460" 
d="M139 1316v175h1237v-164h-988l607 -775l-649 -822h1040v-161h-1264v187l620 788z" />
    <glyph glyph-name="uni2215" unicode="&#x2215;" horiz-adv-x="406" 
d="M-330 -53l928 1468h139l-930 -1468h-137z" />
    <glyph glyph-name="uni2219" unicode="&#x2219;" horiz-adv-x="532" 
d="M266 819v0c31 0 57 -11 79 -33c21 -22 32 -48 32 -79v0c0 -31 -11 -57 -32 -78c-22 -22 -48 -33 -79 -33v0c-30 0 -56 11 -77 33c-22 22 -33 48 -33 78v0c0 31 11 57 33 79c21 22 47 33 77 33z" />
    <glyph glyph-name="radical" unicode="&#x221a;" horiz-adv-x="1124" 
d="M983 1878l72 -10l-307 -1946l-498 1028l-197 -96l-33 68l299 147l404 -825z" />
    <glyph glyph-name="infinity" unicode="&#x221e;" horiz-adv-x="1460" 
d="M689 812v0c70 88 125 146 164 174v0c53 39 110 58 169 58v0c70 0 136 -25 197 -76s91 -132 91 -245v0c0 -79 -11 -140 -34 -185s-58 -82 -106 -109s-97 -41 -148 -41v0c-59 0 -116 19 -169 57v0c-39 29 -94 87 -164 175v0c-91 -114 -187 -171 -289 -171v0
c-67 0 -125 26 -173 77c-49 51 -73 114 -73 190v0c0 75 24 139 73 190c48 51 106 77 173 77v0c102 0 198 -57 289 -171zM758 717v0c58 -90 111 -152 159 -185v0c31 -22 65 -33 103 -33v0c51 0 93 19 128 56c34 37 51 90 51 158v0c0 71 -17 125 -52 162s-79 56 -131 56v0
c-33 0 -63 -9 -92 -28v0c-39 -26 -94 -88 -166 -186zM620 716v0c-53 67 -96 110 -128 129s-63 28 -92 28v0c-39 0 -71 -14 -96 -41c-26 -27 -39 -65 -39 -113v0c0 -47 13 -85 40 -113c27 -29 59 -43 97 -43v0c67 0 140 51 218 153z" />
    <glyph glyph-name="integral" unicode="&#x222b;" horiz-adv-x="561" 
d="M602 1760v0c0 -26 -10 -47 -29 -64c-20 -17 -45 -25 -76 -25v0c-25 0 -45 8 -60 25s-30 25 -44 25v0c-12 0 -21 -5 -27 -14c-7 -10 -10 -25 -10 -44v0c0 -23 7 -108 20 -256s19 -332 19 -551v0c0 -337 -10 -573 -30 -709c-20 -137 -46 -231 -79 -283v0
c-17 -27 -40 -48 -67 -62c-28 -14 -57 -21 -86 -21v0c-33 0 -61 12 -86 35s-37 52 -37 85v0c0 25 9 47 26 65s38 27 64 27v0c23 0 45 -11 66 -33s35 -33 44 -33v0c17 0 30 15 40 45c9 29 14 80 14 153v0c0 25 -2 90 -6 197s-6 294 -6 562v0c0 321 6 534 17 639
s25 176 41 215v0c19 47 42 81 69 104s55 34 84 34v0c38 0 71 -11 98 -32c27 -22 41 -50 41 -84z" />
    <glyph glyph-name="approxequal" unicode="&#x2248;" horiz-adv-x="1194" 
d="M348 874v0c-46 0 -88 -9 -125 -28s-83 -55 -137 -107v0v204c73 81 166 121 279 121v0c77 0 168 -23 274 -69v0l80 -35c41 -19 86 -29 133 -29v0c88 0 174 45 258 135v0v-211c-81 -76 -173 -114 -276 -114v0c-70 0 -152 20 -246 61v0l-62 27c-69 30 -129 45 -178 45z
M348 512v0c-46 0 -88 -9 -125 -28s-83 -55 -137 -107v0v204c73 81 166 121 279 121v0c77 0 168 -23 274 -69v0l80 -35c41 -19 86 -29 133 -29v0c88 0 174 45 258 135v0v-211c-81 -76 -173 -114 -276 -114v0c-70 0 -152 20 -246 61v0l-62 27c-69 30 -129 45 -178 45z" />
    <glyph glyph-name="notequal" unicode="&#x2260;" horiz-adv-x="1195" 
d="M206 -119l209 536h-301v168h367l109 277h-476v168h542l209 535h125l-209 -535h301v-168h-366l-109 -277h475v-168h-540l-209 -536h-127z" />
    <glyph glyph-name="lessequal" unicode="&#x2264;" horiz-adv-x="1195" 
d="M1082 347l-968 415v168l968 410v-180l-768 -315l768 -319v-179zM1082 273v-167h-968v167h968z" />
    <glyph glyph-name="greaterequal" unicode="&#x2265;" horiz-adv-x="1195" 
d="M1082 930v-168l-968 -415v179l768 319l-768 315v180zM1082 273v-167h-968v167h968z" />
    <glyph glyph-name="lozenge" unicode="&#x25ca;" horiz-adv-x="1012" 
d="M565 1526l397 -763l-397 -763h-122l-397 763l397 763h122zM504 111l335 652l-335 652l-335 -652z" />
    <glyph glyph-name="uniF001" unicode="&#xf001;" 
d="M346 922v0h205v-156h-205v-766h-182v766h-137v156h137v30c0 149 34 263 101 343s163 120 288 120v0c102 0 183 -26 242 -78s90 -124 92 -215v0h-172c-18 49 -40 83 -66 104s-60 31 -102 31v0c-135 0 -203 -100 -203 -301v0c0 -11 1 -22 2 -34zM715 0v922h172v-922h-172z
" />
    <glyph glyph-name="uniF002" unicode="&#xf002;" 
d="M338 963v-41h209v-156h-209v-766h-178v766h-142v156h142v45c0 100 11 179 34 237s60 108 113 149s116 62 191 62v0c43 0 84 -6 123 -18v0v-166c-35 9 -62 14 -82 14v0c-73 0 -125 -21 -155 -63c-31 -43 -46 -116 -46 -219v0zM713 0v1397h182v-1397h-182z" />
    <glyph glyph-name="uniFB01" unicode="&#xfb01;" 
d="M346 922v0h205v-156h-205v-766h-182v766h-137v156h137v30c0 149 34 263 101 343s163 120 288 120v0c102 0 183 -26 242 -78s90 -124 92 -215v0h-172c-18 49 -40 83 -66 104s-60 31 -102 31v0c-135 0 -203 -100 -203 -301v0c0 -11 1 -22 2 -34zM715 0v922h172v-922h-172z
" />
    <glyph glyph-name="uniFB02" unicode="&#xfb02;" 
d="M338 963v-41h209v-156h-209v-766h-178v766h-142v156h142v45c0 100 11 179 34 237s60 108 113 149s116 62 191 62v0c43 0 84 -6 123 -18v0v-166c-35 9 -62 14 -82 14v0c-73 0 -125 -21 -155 -63c-31 -43 -46 -116 -46 -219v0zM713 0v1397h182v-1397h-182z" />
  </font>
</defs>
</svg>
